<?xml version="1.0" encoding="iso-8859-1"?>
<!-- Generator: Adobe Illustrator 19.0.0, SVG Export Plug-In . SVG Version: 6.00 Build 0)  -->
<svg version="1.1" id="Capa_1" xmlns="http://www.w3.org/2000/svg" xmlns:xlink="http://www.w3.org/1999/xlink" x="0px" y="0px"
	 viewBox="0 0 484.001 484.001" style="enable-background:new 0 0 484.001 484.001;" xml:space="preserve">
<g>
	<path d="M123.3,134H15.7C7,134,0,141,0,149.7v310.8c0,8.7,7,15.7,15.7,15.7h107.6c8.7,0,15.7-7,15.7-15.7V149.8
		C139,141.1,132,134,123.3,134z M107.5,444.8H31.4V165.5h76.1V444.8z M468.3,216.5H360.7c-8.7,0-15.7,7-15.7,15.7v228.3
		c0,8.7,7,15.7,15.7,15.7h107.6c8.7,0,15.7-7,15.7-15.7V232.2C484.1,223.5,477,216.5,468.3,216.5z M376.4,248h24.4l-24.4,24.4V248z
		 M376.4,297.3l49.3-49.3h24.9l-74.2,74.2L376.4,297.3L376.4,297.3z M452.6,444.8h-24.5l24.5-24.5V444.8z M452.6,395.4l-49.4,49.4
		h-24.9l74.3-74.3L452.6,395.4L452.6,395.4z M452.6,345.6l-76.1,76.1v-24.9l76.1-76.1V345.6z M452.6,295.8L376.4,372v-24.9
		l76.1-76.1v24.8H452.6z M172.5,460.5v-437c0-8.7,7-15.7,15.7-15.7h107.6c8.7,0,15.7,7,15.7,15.7v437c0,8.7-7,15.7-15.7,15.7H188.2
		C179.5,476.3,172.5,469.2,172.5,460.5z"/>
</g>
<g>
</g>
<g>
</g>
<g>
</g>
<g>
</g>
<g>
</g>
<g>
</g>
<g>
</g>
<g>
</g>
<g>
</g>
<g>
</g>
<g>
</g>
<g>
</g>
<g>
</g>
<g>
</g>
<g>
</g>
</svg>
