<?xml version="1.0" encoding="iso-8859-1"?>
<!-- Generator: Adobe Illustrator 19.0.0, SVG Export Plug-In . SVG Version: 6.00 Build 0)  -->
<svg version="1.1" id="Capa_1" xmlns="http://www.w3.org/2000/svg" xmlns:xlink="http://www.w3.org/1999/xlink" x="0px" y="0px"
	 viewBox="0 0 490.7 490.7" style="enable-background:new 0 0 490.7 490.7;" xml:space="preserve">
<g>
	<path d="M245.2,104.95L245.2,104.95c-0.1,0-0.2,0-0.3,0s-0.2,0-0.3,0l0,0c-77.1,0.4-139.7,63.2-139.7,140.4s62.6,140,139.8,140.4
		l0,0c0.1,0,0.2,0,0.3,0s0.2,0,0.3,0l0,0c77-0.4,139.7-63.2,139.7-140.4S322.3,105.35,245.2,104.95z M244.9,343.65
		c-54-0.2-98-44.2-98-98.3s43.9-98.1,98-98.3c54,0.2,98,44.2,98,98.3S299,343.45,244.9,343.65z M224,0.05h42.7v74.5H224V0.05z
		 M224,416.15h42.7v74.5H224V416.15z M74.4,266.65H0v-42.7h74.5v42.7H74.4z M416.2,224.05h74.5v42.7h-74.5V224.05z M56.8,86.95
		L87,56.75l52.7,52.7l-30.2,30.2L56.8,86.95z M433.8,403.75l-30.2,30.2l-52.7-52.7l30.2-30.2L433.8,403.75z M86.9,433.95l-30.2-30.2
		l52.7-52.7l30.2,30.2L86.9,433.95z M433.8,86.95l-52.7,52.7l-30.2-30.2l52.7-52.7L433.8,86.95z"/>
</g>
<g>
</g>
<g>
</g>
<g>
</g>
<g>
</g>
<g>
</g>
<g>
</g>
<g>
</g>
<g>
</g>
<g>
</g>
<g>
</g>
<g>
</g>
<g>
</g>
<g>
</g>
<g>
</g>
<g>
</g>
</svg>
