<?xml version="1.0" encoding="iso-8859-1"?>
<!-- Generator: Adobe Illustrator 19.0.0, SVG Export Plug-In . SVG Version: 6.00 Build 0)  -->
<svg version="1.1" id="Capa_1" xmlns="http://www.w3.org/2000/svg" xmlns:xlink="http://www.w3.org/1999/xlink" x="0px" y="0px"
	 viewBox="0 0 490.7 490.7" style="enable-background:new 0 0 490.7 490.7;" xml:space="preserve">
<g>
	<path d="M245.25,104.9L245.25,104.9c-0.1,0-0.2,0-0.3,0s-0.2,0-0.3,0l0,0c-77.1,0.4-139.7,63.2-139.7,140.4s62.6,140,139.8,140.4
		l0,0c0.1,0,0.2,0,0.3,0s0.2,0,0.3,0l0,0c77.1-0.3,139.8-63.2,139.8-140.4C385.05,168.1,322.45,105.3,245.25,104.9z M244.95,343.6
		V147c54,0.2,98,44.2,98,98.3S299.05,343.4,244.95,343.6z M224.05,0h42.7v74.5h-42.7V0z M224.05,416.2h42.7v74.5h-42.7V416.2z
		 M0.05,224h74.5v42.7H0.05V224z M490.65,266.6h-74.5v-42.7h74.5V266.6z M109.45,139.6l-52.7-52.7l30.2-30.2l52.7,52.7L109.45,139.6
		z M381.25,351l52.7,52.7l-30.2,30.2l-52.7-52.7L381.25,351z M139.65,381.2l-52.7,52.7l-30.2-30.2l52.7-52.7L139.65,381.2z
		 M381.25,139.6l-30.2-30.2l52.7-52.7l30.2,30.2L381.25,139.6z"/>
</g>
<g>
</g>
<g>
</g>
<g>
</g>
<g>
</g>
<g>
</g>
<g>
</g>
<g>
</g>
<g>
</g>
<g>
</g>
<g>
</g>
<g>
</g>
<g>
</g>
<g>
</g>
<g>
</g>
<g>
</g>
</svg>
