<?xml version="1.0" encoding="iso-8859-1"?>
<!-- Generator: Adobe Illustrator 19.0.0, SVG Export Plug-In . SVG Version: 6.00 Build 0)  -->
<svg version="1.1" id="Capa_1" xmlns="http://www.w3.org/2000/svg" xmlns:xlink="http://www.w3.org/1999/xlink" x="0px" y="0px"
	 viewBox="0 0 491.2 491.2" style="enable-background:new 0 0 491.2 491.2;" xml:space="preserve">
<g>
	<path d="M491.2,389.7V101.5c0-34.9-28.4-63.4-63.4-63.4H63.4C28.5,38.1,0,66.5,0,101.5v288.2c0,34.9,28.4,63.4,63.4,63.4h364.4
		C462.8,453.1,491.2,424.6,491.2,389.7z M403.7,73.9c14.3,0,25.9,11.6,25.9,25.9s-11.6,25.9-25.9,25.9s-25.9-11.6-25.9-25.9
		S389.4,73.9,403.7,73.9z M328,73.9L328,73.9L328,73.9c12.5,0,23,8.9,25.4,20.7c0.3,1.7,0.5,3.4,0.5,5.2c0,1.8-0.2,3.5-0.5,5.2
		c-2.4,11.8-12.9,20.7-25.4,20.7l0,0l0,0c-14.3,0-25.9-11.6-25.9-25.9C302.1,85.5,313.7,73.9,328,73.9z M252.3,73.9
		c14.3,0,25.9,11.6,25.9,25.9s-11.6,25.9-25.9,25.9c-14.3,0-25.9-11.6-25.9-25.9C226.4,85.5,238,73.9,252.3,73.9z M450.1,389.7
		c0,12.3-10,22.3-22.3,22.3H63.4c-12.3,0-22.3-10-22.3-22.3V158h409.1v231.7H450.1z"/>
</g>
<g>
</g>
<g>
</g>
<g>
</g>
<g>
</g>
<g>
</g>
<g>
</g>
<g>
</g>
<g>
</g>
<g>
</g>
<g>
</g>
<g>
</g>
<g>
</g>
<g>
</g>
<g>
</g>
<g>
</g>
</svg>
