<?xml version="1.0" encoding="iso-8859-1"?>
<!-- Generator: Adobe Illustrator 19.0.0, SVG Export Plug-In . SVG Version: 6.00 Build 0)  -->
<svg version="1.1" id="Capa_1" xmlns="http://www.w3.org/2000/svg" xmlns:xlink="http://www.w3.org/1999/xlink" x="0px" y="0px"
	 viewBox="0 0 489.1 489.1" style="enable-background:new 0 0 489.1 489.1;" xml:space="preserve">
<g>
	<g>
		<path d="M63.1,467.05H426c34.8,0,63.1-28.3,63.1-63.1v-287c0-34.8-28.3-63.1-63.1-63.1h-23.5v41.6c0,23.5-19.1,42.7-42.7,42.7
			h-21.5c-23.5,0-42.7-19.1-42.7-42.7v-41.7H193.5v41.6c0,23.5-19.1,42.7-42.7,42.7h-21.5c-23.5,0-42.7-19.1-42.7-42.7v-41.6H63.1
			c-34.8,0-63.1,28.3-63.1,63.1v287C0,438.65,28.3,467.05,63.1,467.05z M40.9,173.15h407.4v230.7c0,12.3-10,22.2-22.2,22.2h-363
			c-12.3,0-22.2-10-22.2-22.2V173.15z M150.8,22.05c7.6,0,13.8,6.2,13.8,13.8v59.5c0,7.6-6.2,13.8-13.8,13.8h-21.5
			c-7.6,0-13.8-6.2-13.8-13.8v-59.4c0-7.6,6.2-13.8,13.8-13.8h21.5V22.05z M373.7,35.95v59.5c0,7.6-6.2,13.8-13.8,13.8h-21.5
			c-7.6,0-13.8-6.2-13.8-13.8v-59.5c0-7.6,6.2-13.8,13.8-13.8h21.5C367.5,22.05,373.7,28.25,373.7,35.95z"/>
	</g>
</g>
<g>
</g>
<g>
</g>
<g>
</g>
<g>
</g>
<g>
</g>
<g>
</g>
<g>
</g>
<g>
</g>
<g>
</g>
<g>
</g>
<g>
</g>
<g>
</g>
<g>
</g>
<g>
</g>
<g>
</g>
</svg>
