<?xml version="1.0" encoding="iso-8859-1"?>
<!-- Generator: Adobe Illustrator 19.0.0, SVG Export Plug-In . SVG Version: 6.00 Build 0)  -->
<svg version="1.1" id="Capa_1" xmlns="http://www.w3.org/2000/svg" xmlns:xlink="http://www.w3.org/1999/xlink" x="0px" y="0px"
	 viewBox="0 0 490 490" style="enable-background:new 0 0 490 490;" xml:space="preserve">
<g>
	<g>
		<path d="M178.7,342.3l61.7-50.5c1.9,0.3,3.9,0.6,5.8,0.6c25,0.7,45.4-19.3,45.4-44.2c0-14.4-6.9-27.2-17.6-35.2l-8.7-110.7
			c-0.6-8.2-6.4-15.6-14.5-17.1c-10.7-2-20.3,5.8-21.2,16.2L220.9,213c-11,8.3-18,21.6-17.6,36.5c0.1,2,0.3,3.9,0.6,5.8l-49.8,61
			c-5.4,6.3-6.5,15.6-1.8,22.4C158.5,347.7,170.7,349,178.7,342.3z M247.5,230.4c9.9,0,17.8,8,17.8,17.8c0,9.9-8,17.8-17.8,17.8
			c-9.9,0-17.8-8-17.8-17.8S237.7,230.4,247.5,230.4z M245,490c135.1,0,245-109.9,245-245S380.1,0,245,0S0,109.9,0,245
			S109.9,490,245,490z M245,57.6c103.3,0,187.4,84,187.4,187.4c0,103.3-84,187.4-187.4,187.4c-103.3,0-187.4-84-187.4-187.4
			C57.6,141.7,141.7,57.6,245,57.6z"/>
	</g>
</g>
<g>
</g>
<g>
</g>
<g>
</g>
<g>
</g>
<g>
</g>
<g>
</g>
<g>
</g>
<g>
</g>
<g>
</g>
<g>
</g>
<g>
</g>
<g>
</g>
<g>
</g>
<g>
</g>
<g>
</g>
</svg>
