<?xml version="1.0" encoding="iso-8859-1"?>
<!-- Generator: Adobe Illustrator 19.0.0, SVG Export Plug-In . SVG Version: 6.00 Build 0)  -->
<svg version="1.1" id="Capa_1" xmlns="http://www.w3.org/2000/svg" xmlns:xlink="http://www.w3.org/1999/xlink" x="0px" y="0px"
	 viewBox="0 0 489.4 489.4" style="enable-background:new 0 0 489.4 489.4;" xml:space="preserve">
<g>
	<g>
		<path d="M267.4,3.55l-22.8-2.9v151.4l15.3,3.8c46,11.6,78.1,52.8,78.1,100.3c0,6.7-0.7,13.5-2,20.2l-3,15.4l136.8,65l7.1-21.9
			c8.3-25.5,12.5-51.9,12.5-78.7C489.2,128.45,393.9,19.85,267.4,3.55z M444.4,299.95l-66.6-31.6c0.3-4.1,0.5-8.1,0.5-12.2
			c0-60.6-37.7-113.9-93.3-134.7v-73.7c94.9,22.9,163.9,108.7,163.9,208.4C448.9,270.95,447.4,285.55,444.4,299.95z"/>
		<path d="M0,256.15c0,119.3,89.1,217.7,204.3,232.6v-112.8c-53.6-13.5-93.3-62-93.3-119.8s39.7-106.3,93.3-119.8V23.55
			C89,38.45,0,136.85,0,256.15z"/>
		<path d="M264.8,375.95v112.7c70-9,130.2-48.8,166.8-105.4l-101.8-48.4C313.3,354.75,290.6,369.45,264.8,375.95z"/>
	</g>
</g>
<g>
</g>
<g>
</g>
<g>
</g>
<g>
</g>
<g>
</g>
<g>
</g>
<g>
</g>
<g>
</g>
<g>
</g>
<g>
</g>
<g>
</g>
<g>
</g>
<g>
</g>
<g>
</g>
<g>
</g>
</svg>
