<?xml version="1.0" encoding="iso-8859-1"?>
<!-- Generator: Adobe Illustrator 19.0.0, SVG Export Plug-In . SVG Version: 6.00 Build 0)  -->
<svg version="1.1" id="Capa_1" xmlns="http://www.w3.org/2000/svg" xmlns:xlink="http://www.w3.org/1999/xlink" x="0px" y="0px"
	 viewBox="0 0 486 486" style="enable-background:new 0 0 486 486;" xml:space="preserve">
<g>
	<path d="M391.5,188C385,119.7,327.4,66.2,257.3,66.2c-54,0-100.5,31.6-122,77.3c-7.2-2.7-15-4.1-23-4.1
		c-37.2,0-67.3,30.1-67.3,67.3c0,8.1,1.4,15.9,4.1,23.1C19.8,246.9,0,278.8,0,315.2C0,368,41.5,416.7,93.6,419.6h91h21.2V314.2
		h-48.2c-9.8,0-14.8-11.8-8-18.8l85.4-87.9c4.4-4.5,11.6-4.5,15.9,0l85.4,87.9c6.8,7,1.9,18.8-8,18.8h-48.2v105.6h21.1h78.6
		c59.3-4.2,106.2-56.3,106.2-116.5C486.1,247,445.2,197.2,391.5,188z"/>
</g>
<g>
</g>
<g>
</g>
<g>
</g>
<g>
</g>
<g>
</g>
<g>
</g>
<g>
</g>
<g>
</g>
<g>
</g>
<g>
</g>
<g>
</g>
<g>
</g>
<g>
</g>
<g>
</g>
<g>
</g>
</svg>
