<?xml version="1.0" encoding="iso-8859-1"?>
<!-- Generator: Adobe Illustrator 19.0.0, SVG Export Plug-In . SVG Version: 6.00 Build 0)  -->
<svg version="1.1" id="Capa_1" xmlns="http://www.w3.org/2000/svg" xmlns:xlink="http://www.w3.org/1999/xlink" x="0px" y="0px"
	 viewBox="0 0 488.9 488.9" style="enable-background:new 0 0 488.9 488.9;" xml:space="preserve">
<g>
	<g>
		<path d="M453.95,334.3h-150.5v-19.7c0-4-3.3-7.3-7.3-7.3h-24.1v-33.8h123.5c16.7,0,30.3-13.6,30.3-30.3V30.3
			c0-16.7-13.6-30.3-30.3-30.3H80.65c-16.7,0-30.3,13.6-30.3,30.3v212.8c0,16.7,13.6,30.3,30.3,30.3h123.5v33.8h-24.1
			c-4,0-7.3,3.3-7.3,7.3v19.7H34.95c-15.1,0-27.3,12.2-27.3,27.3v100.1c0,15.1,12.2,27.3,27.3,27.3h419c15.1,0,27.3-12.2,27.3-27.3
			v-100C481.25,346.5,469.05,334.3,453.95,334.3z M102.75,221.3V51.9h270.7v169.4L102.75,221.3L102.75,221.3z M301.05,430.2H99.85
			c-10.3,0-18.6-8.3-18.6-18.6c0-10.3,8.3-18.6,18.6-18.6h201.2c10.3,0,18.6,8.3,18.6,18.6C319.65,421.9,311.35,430.2,301.05,430.2z
			 M389.05,430.2c-10.3,0-18.6-8.3-18.6-18.6c0-10.3,8.3-18.6,18.6-18.6c10.3,0,18.6,8.3,18.6,18.6
			C407.65,421.9,399.25,430.2,389.05,430.2z"/>
	</g>
</g>
<g>
</g>
<g>
</g>
<g>
</g>
<g>
</g>
<g>
</g>
<g>
</g>
<g>
</g>
<g>
</g>
<g>
</g>
<g>
</g>
<g>
</g>
<g>
</g>
<g>
</g>
<g>
</g>
<g>
</g>
</svg>
