<?xml version="1.0" encoding="iso-8859-1"?>
<!-- Generator: Adobe Illustrator 19.0.0, SVG Export Plug-In . SVG Version: 6.00 Build 0)  -->
<svg version="1.1" id="Capa_1" xmlns="http://www.w3.org/2000/svg" xmlns:xlink="http://www.w3.org/1999/xlink" x="0px" y="0px"
	 viewBox="0 0 487.4 487.4" style="enable-background:new 0 0 487.4 487.4;" xml:space="preserve">
<g>
	<path d="M487.4,53.55c0-19.5-15.9-35.4-35.4-35.4H35.4C15.9,18.15,0,34.05,0,53.55v261.4c0,0.1,0,0.3,0,0.4v47.4c0,0.2,0,0.4,0,0.6
		v2.6c0,0.2,0,0.4,0,0.6v0.7l0,0c0.6,16.7,14.4,30,31.2,30h158.1c-0.3,7-4.2,38.8-51.7,44.8h1.5c-7.5,0-13.6,6.1-13.6,13.6
		s6.1,13.6,13.6,13.6h208.3c7.5,0,13.6-6.1,13.6-13.6s-6.1-13.6-13.6-13.6h2.3c-47.5-6-51.4-37.8-51.7-44.8h158.1
		c16.8,0,30.5-13.3,31.2-30l0,0v-58.5l0,0V53.55H487.4z M243.7,379.55c-9.6,0-17.3-7.8-17.3-17.3c0-9.6,7.8-17.3,17.3-17.3
		s17.3,7.8,17.3,17.3C261,371.85,253.3,379.55,243.7,379.55z M433.1,321.15H54.3V74.35h378.8V321.15z"/>
</g>
<g>
</g>
<g>
</g>
<g>
</g>
<g>
</g>
<g>
</g>
<g>
</g>
<g>
</g>
<g>
</g>
<g>
</g>
<g>
</g>
<g>
</g>
<g>
</g>
<g>
</g>
<g>
</g>
<g>
</g>
</svg>
