<?xml version="1.0" encoding="iso-8859-1"?>
<!-- Generator: Adobe Illustrator 19.0.0, SVG Export Plug-In . SVG Version: 6.00 Build 0)  -->
<svg version="1.1" id="Capa_1" xmlns="http://www.w3.org/2000/svg" xmlns:xlink="http://www.w3.org/1999/xlink" x="0px" y="0px"
	 viewBox="0 0 487.053 487.053" style="enable-background:new 0 0 487.053 487.053;" xml:space="preserve">
<g>
	<g>
		<path d="M472.552,89.777h-350.2c-7.2,0-14,3.5-18.2,9.3l-101.3,140c-3.9,5.4-3.8,12.7,0.3,17.9l101,131.5
			c4.3,5.5,10.8,8.8,17.8,8.8h350.6c8,0,14.5-6.5,14.5-14.5v-278.5C487.152,96.277,480.652,89.777,472.552,89.777z M350.052,286.077
			l-32.5,32.4l-42.6-42.6l-42.6,42.6l-32.5-32.5l42.6-42.6l-42.6-42.6l32.5-32.5l42.6,42.6l42.6-42.4l32.5,32.5l-42.6,42.5
			L350.052,286.077z"/>
	</g>
</g>
<g>
</g>
<g>
</g>
<g>
</g>
<g>
</g>
<g>
</g>
<g>
</g>
<g>
</g>
<g>
</g>
<g>
</g>
<g>
</g>
<g>
</g>
<g>
</g>
<g>
</g>
<g>
</g>
<g>
</g>
</svg>
