<?xml version="1.0" encoding="iso-8859-1"?>
<!-- Generator: Adobe Illustrator 19.0.0, SVG Export Plug-In . SVG Version: 6.00 Build 0)  -->
<svg version="1.1" id="Capa_1" xmlns="http://www.w3.org/2000/svg" xmlns:xlink="http://www.w3.org/1999/xlink" x="0px" y="0px"
	 viewBox="0 0 491 491" style="enable-background:new 0 0 491 491;" xml:space="preserve">
<g>
	<path d="M491,165.1L427.1,22.6H63.9L0,165.1l245.5,303.3L491,165.1z M182.9,187.1h125.3L245.5,371L182.9,187.1z M302.8,315.3
		l43.7-128.2h60.1L302.8,315.3z M402,93.3l18.8,42h-47.2L402,93.3z M371,74.4l-37.8,56l-44.2-56C289,74.4,371,74.4,371,74.4z
		 M290.8,135.3h-90.7l45.4-57.5L290.8,135.3z M202,74.4l-44.2,56l-37.8-56C120,74.4,202,74.4,202,74.4z M89,93.3l28.3,42H70.2
		L89,93.3z M84.4,187.1h60.1l43.7,128.2L84.4,187.1z"/>
</g>
<g>
</g>
<g>
</g>
<g>
</g>
<g>
</g>
<g>
</g>
<g>
</g>
<g>
</g>
<g>
</g>
<g>
</g>
<g>
</g>
<g>
</g>
<g>
</g>
<g>
</g>
<g>
</g>
<g>
</g>
</svg>
