<?xml version="1.0" encoding="iso-8859-1"?>
<!-- Generator: Adobe Illustrator 19.0.0, SVG Export Plug-In . SVG Version: 6.00 Build 0)  -->
<svg version="1.1" id="Capa_1" xmlns="http://www.w3.org/2000/svg" xmlns:xlink="http://www.w3.org/1999/xlink" x="0px" y="0px"
	 viewBox="0 0 490.6 490.6" style="enable-background:new 0 0 490.6 490.6;" xml:space="preserve">
<g>
	<g>
		<path d="M28.1,89.564h203.8c-8.7,8.7-17.3,17.4-26,26.1l-30,30.1H56.1v288.4h288.4v-119.9c18.7-18.7,37.4-37.4,56.1-56.1v204
			c0,15.5-12.6,28.1-28.1,28.1H28.1c-15.5,0-28.1-12.6-28.1-28.1v-344.6C0,102.064,12.6,89.564,28.1,89.564z M484.9,72.464
			c3,6.8,3.8,14.5,5.7,21.8c-0.5,5.8-2.5,10.3-6.6,14.3c-82.8,82.7-165.6,165.4-248.3,248.3c-3.2,3.2-6.7,5-11,5.9
			c-35.7,7.5-71.4,15-107.1,22.6c-8.4,1.8-14.7-4.5-12.9-12.9c7.6-36,15.1-72,23-107.9c0.8-3.5,2.9-7.2,5.4-9.8
			c23.7-24,47.6-47.8,71.4-71.6c58.9-58.9,117.8-117.8,176.6-176.8c4.3-4.4,9.1-6.6,14.9-5.9c6.6,0.8,13.5,1.5,19.6,4
			C447.9,17.564,470.9,40.664,484.9,72.464z M212.6,340.264c-1.6-5.3-2.5-11-5.1-15.8c-10.1-18.7-24.6-33.1-43.7-42.6
			c-5.4-2.7-11.1-4.4-17.7-3.8c-3.2,15.1-6.5,29.8-9.4,44.6v0.1c15.7,2.7,28.2,14.9,31.3,30.5c13.9-2.8,27.7-5.9,41.6-8.7
			C212.3,344.064,213.3,342.764,212.6,340.264z"/>
	</g>
</g>
<g>
</g>
<g>
</g>
<g>
</g>
<g>
</g>
<g>
</g>
<g>
</g>
<g>
</g>
<g>
</g>
<g>
</g>
<g>
</g>
<g>
</g>
<g>
</g>
<g>
</g>
<g>
</g>
<g>
</g>
</svg>
