<?xml version="1.0" encoding="iso-8859-1"?>
<!-- Generator: Adobe Illustrator 19.0.0, SVG Export Plug-In . SVG Version: 6.00 Build 0)  -->
<svg version="1.1" id="Capa_1" xmlns="http://www.w3.org/2000/svg" xmlns:xlink="http://www.w3.org/1999/xlink" x="0px" y="0px"
	 viewBox="0 0 489.2 489.2" style="enable-background:new 0 0 489.2 489.2;" xml:space="preserve">
<g>
	<g>
		<path d="M428.3,431.1c33.6,0,60.9-27.3,60.9-60.9V119c0-33.6-27.3-60.9-60.9-60.9H60.9C27.3,58.1,0,85.4,0,119v251.1
			C0,403.7,27.3,431,60.9,431h367.4V431.1z M62.3,142.9c-6.3-5.4-7.1-14.8-1.7-21.1s14.8-7.1,21.1-1.7l162.9,138.2l163-138.3
			c6.3-5.4,15.8-4.6,21.1,1.7c5.4,6.3,4.6,15.8-1.7,21.1l-116.3,98.8l116.9,110c6,5.7,6.3,15.2,0.6,21.2c-3,3.1-6.9,4.7-10.9,4.7
			c-3.7,0-7.4-1.4-10.3-4.1L287.7,261.2l-33.3,28.3c-2.8,2.4-6.3,3.6-9.7,3.6c-3.5,0-6.9-1.2-9.7-3.6l-33.4-28.3L82.3,373.5
			c-2.9,2.7-6.6,4.1-10.3,4.1c-4,0-8-1.6-10.9-4.7c-5.7-6-5.4-15.5,0.6-21.2l116.9-110.1L62.3,142.9z"/>
	</g>
</g>
<g>
</g>
<g>
</g>
<g>
</g>
<g>
</g>
<g>
</g>
<g>
</g>
<g>
</g>
<g>
</g>
<g>
</g>
<g>
</g>
<g>
</g>
<g>
</g>
<g>
</g>
<g>
</g>
<g>
</g>
</svg>
