<?xml version="1.0" encoding="iso-8859-1"?>
<!-- Generator: Adobe Illustrator 19.0.0, SVG Export Plug-In . SVG Version: 6.00 Build 0)  -->
<svg version="1.1" id="Capa_1" xmlns="http://www.w3.org/2000/svg" xmlns:xlink="http://www.w3.org/1999/xlink" x="0px" y="0px"
	 viewBox="0 0 488.5 488.5" style="enable-background:new 0 0 488.5 488.5;" xml:space="preserve">
<g>
	<path d="M352.8,313.4L175.1,135.7c20-12.8,43.7-20.3,69.2-20.3c71,0,128.7,57.7,128.7,128.7C373,269.7,365.6,293.4,352.8,313.4z
		 M244.3,372.9c25.5,0,49.2-7.5,69.2-20.3L135.8,175c-12.8,20-20.3,43.7-20.3,69.2C115.6,315.2,173.3,372.9,244.3,372.9z M0,244.2
		C0,109.3,109.4,0,244.3,0s244.2,109.3,244.2,244.2S379.1,488.5,244.2,488.5S0,379.1,0,244.2z M59.4,244.2
		c0,102,83,184.9,184.9,184.9c102,0,184.9-83,184.9-184.9S346.3,59.3,244.3,59.3S59.4,142.2,59.4,244.2z"/>
</g>
<g>
</g>
<g>
</g>
<g>
</g>
<g>
</g>
<g>
</g>
<g>
</g>
<g>
</g>
<g>
</g>
<g>
</g>
<g>
</g>
<g>
</g>
<g>
</g>
<g>
</g>
<g>
</g>
<g>
</g>
</svg>
