<?xml version="1.0" encoding="iso-8859-1"?>
<!-- Generator: Adobe Illustrator 19.0.0, SVG Export Plug-In . SVG Version: 6.00 Build 0)  -->
<svg version="1.1" id="Capa_1" xmlns="http://www.w3.org/2000/svg" xmlns:xlink="http://www.w3.org/1999/xlink" x="0px" y="0px"
	 viewBox="0 0 490 490" style="enable-background:new 0 0 490 490;" xml:space="preserve">
<g>
	<path d="M245,490c135.1,0,245-109.9,245-245S380.1,0,245,0S0,109.9,0,245S109.9,490,245,490z M245,74.5
		c94,0,170.5,76.5,170.5,170.5c0,33.7-9.9,65.2-26.8,91.7L153.3,101.3C179.8,84.3,211.3,74.5,245,74.5z M101.3,153.3l235.4,235.4
		c-26.5,17-57.9,26.8-91.7,26.8C151,415.5,74.5,339,74.5,245C74.5,211.3,84.3,179.8,101.3,153.3z"/>
</g>
<g>
</g>
<g>
</g>
<g>
</g>
<g>
</g>
<g>
</g>
<g>
</g>
<g>
</g>
<g>
</g>
<g>
</g>
<g>
</g>
<g>
</g>
<g>
</g>
<g>
</g>
<g>
</g>
<g>
</g>
</svg>
