<?xml version="1.0" encoding="iso-8859-1"?>
<!-- Generator: Adobe Illustrator 19.0.0, SVG Export Plug-In . SVG Version: 6.00 Build 0)  -->
<svg version="1.1" id="Capa_1" xmlns="http://www.w3.org/2000/svg" xmlns:xlink="http://www.w3.org/1999/xlink" x="0px" y="0px"
	 viewBox="0 0 489.4 489.4" style="enable-background:new 0 0 489.4 489.4;" xml:space="preserve">
<g>
	<path d="M469.4,218.5c-1.3,0-2.5-0.8-2.8-1.9c-12.6-45.2-54-76.7-100.8-76.7c-1.5,0-2.9,0-4.4,0.1c-36.4,1.5-69.3,22.3-87,53.9
		c-9.3-4-19.4-6-29.7-6c-10.2,0-20.2,2-29.5,6c-18.3-33.1-53.1-54-91.6-54c-46.8,0-88.2,31.5-100.8,76.7c-0.3,1.2-1.5,2-2.8,2H0
		v52.2h20c1.3,0,2.5,0.8,2.8,1.9c12.6,45.2,54,76.7,100.8,76.7c1.5,0,2.9,0,4.4-0.1c25.2-1,49.2-11.3,67.7-29
		c18-17.2,29.3-39.9,31.9-64.2c3.1-6.5,9.8-10.8,17.1-10.8c7.2,0,13.7,4.1,16.9,10.5c2.7,25.2,14.4,48.6,33.2,65.9
		c19.4,17.9,44.6,27.8,71,27.8c46.8,0,88.2-31.5,100.8-76.7c0.3-1.2,1.5-2,2.8-2h20v-52.2h-20V218.5z M419.3,244.6
		c0,29.5-24,53.5-53.5,53.5s-53.5-24-53.5-53.5s24-53.5,53.5-53.5S419.3,215.1,419.3,244.6z M177,244.6c0,29.5-24,53.5-53.5,53.5
		S70,274.1,70,244.6s24-53.5,53.5-53.5C153.1,191.1,177,215.1,177,244.6z"/>
</g>
<g>
</g>
<g>
</g>
<g>
</g>
<g>
</g>
<g>
</g>
<g>
</g>
<g>
</g>
<g>
</g>
<g>
</g>
<g>
</g>
<g>
</g>
<g>
</g>
<g>
</g>
<g>
</g>
<g>
</g>
</svg>
