<?xml version="1.0" encoding="iso-8859-1"?>
<!-- Generator: Adobe Illustrator 19.0.0, SVG Export Plug-In . SVG Version: 6.00 Build 0)  -->
<svg version="1.1" id="Capa_1" xmlns="http://www.w3.org/2000/svg" xmlns:xlink="http://www.w3.org/1999/xlink" x="0px" y="0px"
	 viewBox="0 0 490.2 490.2" style="enable-background:new 0 0 490.2 490.2;" xml:space="preserve">
<g>
	<g>
		<g>
			<g>
				<circle cx="175.5" cy="47.5" r="47.5"/>
			</g>
			<g>
				<path d="M314.7,112.3c-38.4,0-69.6,31.2-69.6,69.6c0-38.4-31.2-69.6-69.6-69.6s-69.6,31.2-69.6,69.6v47.9h139.2h139.2v-47.9
					C384.3,143.4,353.2,112.3,314.7,112.3z"/>
			</g>
			<g>
				<circle cx="314.7" cy="47.5" r="47.5"/>
			</g>
		</g>
		<g>
			<g>
				<circle cx="105.9" cy="307.9" r="47.5"/>
			</g>
			<g>
				<circle cx="245.1" cy="307.9" r="47.5"/>
			</g>
			<path d="M384.3,372.7c-38.4,0-69.6,31.2-69.6,69.6c0-38.5-31.2-69.6-69.6-69.6c-38.4,0-69.6,31.2-69.6,69.6
				c0-38.4-31.2-69.6-69.6-69.6c-38.4,0-69.6,31.2-69.6,69.6v47.9h139.2h139.2h139.2v-47.9C453.9,403.8,422.8,372.7,384.3,372.7z"/>
			<g>
				<path d="M384.3,355.4c26.2,0,47.5-21.2,47.5-47.5c0-26.2-21.3-47.5-47.5-47.5s-47.5,21.2-47.5,47.5
					C336.9,334.1,358.1,355.4,384.3,355.4z"/>
			</g>
		</g>
	</g>
</g>
<g>
</g>
<g>
</g>
<g>
</g>
<g>
</g>
<g>
</g>
<g>
</g>
<g>
</g>
<g>
</g>
<g>
</g>
<g>
</g>
<g>
</g>
<g>
</g>
<g>
</g>
<g>
</g>
<g>
</g>
</svg>
