<?xml version="1.0" encoding="iso-8859-1"?>
<!-- Generator: Adobe Illustrator 19.0.0, SVG Export Plug-In . SVG Version: 6.00 Build 0)  -->
<svg version="1.1" id="Capa_1" xmlns="http://www.w3.org/2000/svg" xmlns:xlink="http://www.w3.org/1999/xlink" x="0px" y="0px"
	 viewBox="0 0 488.982 488.982" style="enable-background:new 0 0 488.982 488.982;" xml:space="preserve">
<g>
	<g>
		<g>
			<circle cx="266.272" cy="188.786" r="53.2"/>
		</g>
		<g>
			<path d="M453.472,183.286c-2.6-95.9-79.1-176.1-174.7-182.8c-106-7.5-195,72.7-201.8,175.4h-0.5v5.2c0,17.1-6.4,43.6-14.3,58.8
				c-8.3,15.9-17,31.5-24.1,42.5c-7,10.9,0.8,25.1,13.7,25.1h24.7v90.5c0,18.3,14.8,33.1,33.1,33.1h51.6v45.4
				c0,8.6,8.4,14.6,16.6,11.8l217.1-74c7.6-2.6,12.7-9.7,12.7-17.7v-84.9C437.172,277.586,454.772,232.486,453.472,183.286z
				 M387.772,210.386l-24.2,4.1c-2.3,9.1-5.9,17.9-10.8,26.1l14.2,19.9c2.6,3.7,2.2,8.8-1,12l-8.6,8.6l-8.6,8.6
				c-3.2,3.2-8.3,3.6-12,1l-20-14.2c-8,4.7-16.6,8.3-25.4,10.6l-3.9,24.4c-0.8,4.5-4.6,7.7-9.1,7.7h-12.1h-12.1
				c-4.5,0-8.3-3.2-9.1-7.7l-4-24c-9-2.3-17.9-5.8-26.1-10.6l-20.2,14.3c-3.7,2.6-8.8,2.2-12-1l-8.6-8.6l-8.6-8.6
				c-3.2-3.2-3.6-8.3-1-12l14.1-19.8c-5-8.2-8.6-16.9-11-26l-24.4-4.1c-4.5-0.8-7.7-4.6-7.7-9.1v-12.1v-12.1c0-4.5,3.2-8.4,7.7-9.1
				l24-3.8c2.3-9,5.8-17.9,10.6-26.1l-14.3-20.2c-2.6-3.7-2.2-8.8,1-12l8.6-8.6l8.6-8.6c3.2-3.2,8.3-3.6,12-1l19.8,14.1
				c8.4-5.2,17.4-8.9,26.7-11.2l4.1-24.2c0.8-4.5,4.6-7.7,9.1-7.7h12.1h12.1c4.5,0,8.4,3.2,9.1,7.7l4.1,24.2
				c9.1,2.3,17.9,5.9,26.1,10.8l19.9-14.2c3.6-2.6,8.7-2.2,11.9,0.8l8.6,8.6l8.6,8.6c3.2,3.2,3.6,8.3,1,12l-14.2,20
				c4.9,8.3,8.5,17,10.8,26.1l24.2,4.1c4.5,0.8,7.7,4.6,7.7,9.1v12.1v12.1C395.472,205.686,392.272,209.586,387.772,210.386z"/>
		</g>
	</g>
</g>
<g>
</g>
<g>
</g>
<g>
</g>
<g>
</g>
<g>
</g>
<g>
</g>
<g>
</g>
<g>
</g>
<g>
</g>
<g>
</g>
<g>
</g>
<g>
</g>
<g>
</g>
<g>
</g>
<g>
</g>
</svg>
