<?xml version="1.0" encoding="iso-8859-1"?>
<!-- Generator: Adobe Illustrator 19.0.0, SVG Export Plug-In . SVG Version: 6.00 Build 0)  -->
<svg version="1.1" id="Capa_1" xmlns="http://www.w3.org/2000/svg" xmlns:xlink="http://www.w3.org/1999/xlink" x="0px" y="0px"
	 viewBox="0 0 489.2 489.2" style="enable-background:new 0 0 489.2 489.2;" xml:space="preserve">
<g>
	<path d="M40.8,265.4l189,189c4,4,9.4,6.2,15,6.2c5.6,0,11-2.2,15-6.2l188.7-188.7c26.2-26.2,40.7-61.1,40.7-98.1
		c0-37.1-14.4-72-40.6-98.2s-61-40.6-98.1-40.6s-71.9,14.5-98.2,40.7l-7.6,7.6l-7.8-7.8c-26.3-26.3-61.2-40.7-98.3-40.7
		c-37,0-71.8,14.4-98,40.6S0,130.3,0,167.4C0.1,204.4,14.6,239.2,40.8,265.4z"/>
</g>
<g>
</g>
<g>
</g>
<g>
</g>
<g>
</g>
<g>
</g>
<g>
</g>
<g>
</g>
<g>
</g>
<g>
</g>
<g>
</g>
<g>
</g>
<g>
</g>
<g>
</g>
<g>
</g>
<g>
</g>
</svg>
