<?xml version="1.0" encoding="iso-8859-1"?>
<!-- Generator: Adobe Illustrator 19.0.0, SVG Export Plug-In . SVG Version: 6.00 Build 0)  -->
<svg version="1.1" id="Capa_1" xmlns="http://www.w3.org/2000/svg" xmlns:xlink="http://www.w3.org/1999/xlink" x="0px" y="0px"
	 viewBox="0 0 489.9 489.9" style="enable-background:new 0 0 489.9 489.9;" xml:space="preserve">
<g>
	<path d="M487.2,371.6l-21.8-26.7c-3.5-4.3-5.4-9.7-5.4-15.3v-25.2v-16.1v-46.6l0,0V112.4c0-23.7-19.2-42.8-42.8-42.8H256.9h-184
		c-23.7,0-42.8,19.2-42.8,42.8v175.9v9.4v31.5c0,5.6-1.9,10.9-5.4,15.3L2.6,371.6c-1.7,2-2.6,4.6-2.6,7.2v12.4
		c0,16,13,29.1,29.1,29.1h431.7c16,0,29.1-13,29.1-29.1v-12.4C489.8,376.2,488.9,373.6,487.2,371.6z M291.4,377.9
		c0,8.2-6.6,14.8-14.8,14.8h-63.3c-8.2,0-14.8-6.6-14.8-14.8v-3.2h92.8v3.2H291.4z M84,332V123h322.4v209H84z"/>
</g>
<g>
</g>
<g>
</g>
<g>
</g>
<g>
</g>
<g>
</g>
<g>
</g>
<g>
</g>
<g>
</g>
<g>
</g>
<g>
</g>
<g>
</g>
<g>
</g>
<g>
</g>
<g>
</g>
<g>
</g>
</svg>
