<?xml version="1.0" encoding="iso-8859-1"?>
<!-- Generator: Adobe Illustrator 19.0.0, SVG Export Plug-In . SVG Version: 6.00 Build 0)  -->
<svg version="1.1" id="Capa_1" xmlns="http://www.w3.org/2000/svg" xmlns:xlink="http://www.w3.org/1999/xlink" x="0px" y="0px"
	 viewBox="0 0 487.57 487.57" style="enable-background:new 0 0 487.57 487.57;" xml:space="preserve">
<g>
	<path d="M137.482,253.8c0.7-2,1.5-4.2,2.4-6.5l0,0l0,0c3.8-9.4,10.1-20.9,19.9-31.2c46-35.3,94.2-168,94.2-168s-7.5-48.1,15-48.1
		s76,15,43.9,112.3c-32.1,97.4,0,82.4,0,82.4c7.4-1.7,14.2-3.1,20.7-4.2l0,0c0,0,92.7-20.8,126.9,10.5c27.4,25,6.1,58,6.1,58
		s38.5,34.3-0.7,75.3c0,0,25.1,41.5-19,74.6c0,0,20.5,57.1-61.4,74.5c-24.1,5.1-54.4,4.9-83,2.7c-71.5,1.5-142.6-7.8-142.6-7.8
		l-46-200.1C127.782,269.8,134.382,260.1,137.482,253.8z M4.182,281l-0.1,200h108.7c9.7,0,16-7.7,14-17.2l-34.8-165.6
		c-2-9.5-11.5-17.2-21.2-17.2L4.182,281L4.182,281z"/>
</g>
<g>
</g>
<g>
</g>
<g>
</g>
<g>
</g>
<g>
</g>
<g>
</g>
<g>
</g>
<g>
</g>
<g>
</g>
<g>
</g>
<g>
</g>
<g>
</g>
<g>
</g>
<g>
</g>
<g>
</g>
</svg>
