<?xml version="1.0" encoding="iso-8859-1"?>
<!-- Generator: Adobe Illustrator 19.0.0, SVG Export Plug-In . SVG Version: 6.00 Build 0)  -->
<svg version="1.1" id="Capa_1" xmlns="http://www.w3.org/2000/svg" xmlns:xlink="http://www.w3.org/1999/xlink" x="0px" y="0px"
	 viewBox="0 0 488.9 488.9" style="enable-background:new 0 0 488.9 488.9;" xml:space="preserve">
<g>
	<path d="M200.5,40.4l2.2,151.3c0.1,7.7-6.2,14-13.9,13.9l-151.4-2.1c-12.1-0.2-18.1-14.8-9.5-23.4L70,138L0,68L65,3l70,70
		l42.1-42.1C185.7,22.4,200.3,28.3,200.5,40.4z M353.8,73.9l-42.1-42.1c-8.6-8.6-23.2-2.6-23.4,9.5l-2.2,151.3
		c-0.1,7.7,6.2,14,13.9,13.9l151.3-2.2c12.1-0.2,18.1-14.8,9.5-23.4l-42.1-42.1l70-70l-65-65L353.8,73.9z M460.9,308.9
		c8.6-8.6,2.6-23.2-9.5-23.4l-151.3-2.2c-7.7-0.1-14,6.2-13.9,13.9l2.2,151.3c0.2,12.1,14.8,18.1,23.4,9.5l42.1-42.1l70,70l65-65
		l-70-70L460.9,308.9z M188.8,282.4l-151.4,2.2c-12.1,0.2-18.1,14.8-9.5,23.4L70,350.1l-70,70l65,65l70-70l42.1,42.1
		c8.6,8.6,23.2,2.6,23.4-9.5l2.2-151.3C202.8,288.6,196.5,282.3,188.8,282.4z"/>
</g>
<g>
</g>
<g>
</g>
<g>
</g>
<g>
</g>
<g>
</g>
<g>
</g>
<g>
</g>
<g>
</g>
<g>
</g>
<g>
</g>
<g>
</g>
<g>
</g>
<g>
</g>
<g>
</g>
<g>
</g>
</svg>
