<?xml version="1.0" encoding="iso-8859-1"?>
<!-- Generator: Adobe Illustrator 19.0.0, SVG Export Plug-In . SVG Version: 6.00 Build 0)  -->
<svg version="1.1" id="Capa_1" xmlns="http://www.w3.org/2000/svg" xmlns:xlink="http://www.w3.org/1999/xlink" x="0px" y="0px"
	 viewBox="0 0 490 490" style="enable-background:new 0 0 490 490;" xml:space="preserve">
<g>
	<path d="M189.8,245c0-30.5,24.7-55.2,55.2-55.2s55.2,24.7,55.2,55.2s-24.7,55.2-55.2,55.2S189.8,275.5,189.8,245z M434.8,189.8
		c-30.5,0-55.2,24.7-55.2,55.2s24.7,55.2,55.2,55.2S490,275.5,490,245S465.3,189.8,434.8,189.8z M55.2,189.8
		C24.7,189.8,0,214.5,0,245s24.7,55.2,55.2,55.2s55.2-24.7,55.2-55.2C110.4,214.5,85.7,189.8,55.2,189.8z"/>
</g>
<g>
</g>
<g>
</g>
<g>
</g>
<g>
</g>
<g>
</g>
<g>
</g>
<g>
</g>
<g>
</g>
<g>
</g>
<g>
</g>
<g>
</g>
<g>
</g>
<g>
</g>
<g>
</g>
<g>
</g>
</svg>
