<?xml version="1.0" encoding="iso-8859-1"?>
<!-- Generator: Adobe Illustrator 19.0.0, SVG Export Plug-In . SVG Version: 6.00 Build 0)  -->
<svg version="1.1" id="Capa_1" xmlns="http://www.w3.org/2000/svg" xmlns:xlink="http://www.w3.org/1999/xlink" x="0px" y="0px"
	 viewBox="0 0 490.444 490.444" style="enable-background:new 0 0 490.444 490.444;" xml:space="preserve">
<g>
	<path d="M480.986,215.947c-1.4,1.1-2.9,2.2-4.5,3.3l0,0l0,0c-7.9,5.1-18.5,9.2-32.8,9.9c-41.3,2.1-77.6-68.9-135.5-66
		c-14.8,0.7-35.3,4.3-63,31.8c-27.7-27.6-48.1-31.1-63-31.8c-57.9-2.9-94.2,68.1-135.5,66c-14.3-0.7-25-4.8-32.8-9.9l0,0l0,0
		c-1.6-1.1-3.1-2.2-4.5-3.3c-13.2-8.4-8.9,7.2-8,10.3c12.1,37.3,43.3,97.1,119.7,100.9c60.8,3.1,102.7-24.7,124.1-55.4
		c21.4,30.6,63.3,58.4,124.1,55.4c76.4-3.8,107.6-63.6,119.7-100.9C489.986,223.147,494.286,207.547,480.986,215.947z"/>
</g>
<g>
</g>
<g>
</g>
<g>
</g>
<g>
</g>
<g>
</g>
<g>
</g>
<g>
</g>
<g>
</g>
<g>
</g>
<g>
</g>
<g>
</g>
<g>
</g>
<g>
</g>
<g>
</g>
<g>
</g>
</svg>
