<?xml version="1.0" encoding="iso-8859-1"?>
<!-- Generator: Adobe Illustrator 19.0.0, SVG Export Plug-In . SVG Version: 6.00 Build 0)  -->
<svg version="1.1" id="Capa_1" xmlns="http://www.w3.org/2000/svg" xmlns:xlink="http://www.w3.org/1999/xlink" x="0px" y="0px"
	 viewBox="0 0 487.4 487.4" style="enable-background:new 0 0 487.4 487.4;" xml:space="preserve">
<g>
	<path d="M464,126.737c-11.8-42.4-51.4-73.2-97.9-71.3c-38.6,1.6-71.9,26.4-86,60.7c-10.5-6.7-23-10.7-36.4-10.7
		c-13.4,0-25.8,3.9-36.3,10.6c-14.5-35.6-49.5-60.8-90.2-60.8c-44.7,0-82.3,30.2-93.8,71.3c-1.8,6.5-7.8,10.9-14.5,10.9H0v30.5h8.9
		c6.7,0,12.7,4.4,14.5,10.8c11.8,42.4,51.4,73.2,97.9,71.3c48.4-2,88.4-40.5,92.8-88.4c4.6-11.8,16.1-20.3,29.6-20.3
		c13.3,0,24.7,8.2,29.4,19.8c4.3,49.8,46.2,89,97.1,89c44.7,0,82.3-30.2,93.8-71.3c1.8-6.5,7.8-10.9,14.5-10.9h8.9v-30.5h-8.9
		C471.8,137.537,465.8,133.137,464,126.737z M117.2,220.637c-37.4,0-67.8-30.4-67.8-67.8s30.4-67.8,67.8-67.8s67.8,30.4,67.8,67.8
		S154.6,220.637,117.2,220.637z M370.2,220.637c-37.4,0-67.8-30.4-67.8-67.8s30.4-67.8,67.8-67.8s67.8,30.4,67.8,67.8
		S407.6,220.637,370.2,220.637z M482.5,333.036c-11.9,36.6-42.4,95.1-117.3,98.9c-59.6,3-100.6-24.2-121.5-54.2
		c-20.9,30-62,57.2-121.5,54.2c-74.9-3.8-105.5-62.4-117.3-98.9c-0.9-3-5.2-18.3,7.8-10.1c1.4,1.1,2.8,2.2,4.4,3.2l0,0l0,0
		c7.7,5,18.1,9,32.1,9.7c40.5,2,76-67.5,132.7-64.7c14.5,0.7,34.6,4.2,61.7,31.2c27.1-27,47.1-30.5,61.7-31.2
		c56.7-2.8,92.2,66.7,132.7,64.7c14-0.7,24.4-4.7,32.1-9.7l0,0l0,0c1.6-1,3.1-2.1,4.5-3.2
		C487.7,314.737,483.5,329.937,482.5,333.036z"/>
</g>
<g>
</g>
<g>
</g>
<g>
</g>
<g>
</g>
<g>
</g>
<g>
</g>
<g>
</g>
<g>
</g>
<g>
</g>
<g>
</g>
<g>
</g>
<g>
</g>
<g>
</g>
<g>
</g>
<g>
</g>
</svg>
