<?xml version="1.0" encoding="iso-8859-1"?>
<!-- Generator: Adobe Illustrator 19.0.0, SVG Export Plug-In . SVG Version: 6.00 Build 0)  -->
<svg version="1.1" id="Capa_1" xmlns="http://www.w3.org/2000/svg" xmlns:xlink="http://www.w3.org/1999/xlink" x="0px" y="0px"
	 viewBox="0 0 490 490" style="enable-background:new 0 0 490 490;" xml:space="preserve">
<g>
	<path d="M95.6,490h298.7c21.4,0,38.8-17.4,38.8-38.8V237.1c0-21.4-17.4-38.8-38.8-38.8h-1v-51.2C393.3,66,327.3,0,246.2,0
		S99.1,66,99.1,147.1v51.2h-3.4c-21.4,0-38.8,17.4-38.8,38.8v214.1C56.8,472.6,74.2,490,95.6,490z M163.4,147.1
		c0-45.6,37.1-82.8,82.8-82.8c45.6,0,82.8,37.1,82.8,82.8v51.2H163.4V147.1z"/>
</g>
<g>
</g>
<g>
</g>
<g>
</g>
<g>
</g>
<g>
</g>
<g>
</g>
<g>
</g>
<g>
</g>
<g>
</g>
<g>
</g>
<g>
</g>
<g>
</g>
<g>
</g>
<g>
</g>
<g>
</g>
</svg>
