<?xml version="1.0" encoding="iso-8859-1"?>
<!-- Generator: Adobe Illustrator 19.0.0, SVG Export Plug-In . SVG Version: 6.00 Build 0)  -->
<svg version="1.1" id="Capa_1" xmlns="http://www.w3.org/2000/svg" xmlns:xlink="http://www.w3.org/1999/xlink" x="0px" y="0px"
	 viewBox="0 0 490.406 490.406" style="enable-background:new 0 0 490.406 490.406;" xml:space="preserve">
<g>
	<path d="M238.453,64.806c46-4.3,85.3,29.2,90.3,73c0.6,5.4,5.2,9.4,10.6,9.4h43.2c6.3,0,11.2-5.4,10.7-11.6
		c-6.1-77.6-72.7-138.5-152.5-135.5c-79.7,3-141.6,71-141.6,150.7v47.6h-3.4c-21.5,0-38.9,17.4-38.9,38.9v214.2
		c0,21.5,17.4,38.9,38.9,38.9h298.9c21.5,0,38.9-17.4,38.9-38.9v-214.2c0-21.5-17.4-38.9-38.9-38.9h-1.1h-64.3h-165.6v-48.8
		C163.653,106.606,195.553,68.806,238.453,64.806z M213.053,310.006c6.9-15.4,23.8-24.3,39.8-21.1c17.7,3.6,30.1,17.9,30.2,35.6
		c0.1,12.2-4.9,22.3-14.8,29.5c-3,2.2-3.8,4.4-3.8,7.8c0.1,15.7,0.1,31.4,0.1,47.1l0,0c0.3,6.5-3,12.9-8.8,15.9
		c-13.8,7-27.5-2.8-27.5-15.8v-0.1c0-15.8,0-31.5,0.1-47.3c0-3.2-0.7-5.3-3.5-7.4C210.553,343.706,205.953,325.806,213.053,310.006z
		"/>
</g>
<g>
</g>
<g>
</g>
<g>
</g>
<g>
</g>
<g>
</g>
<g>
</g>
<g>
</g>
<g>
</g>
<g>
</g>
<g>
</g>
<g>
</g>
<g>
</g>
<g>
</g>
<g>
</g>
<g>
</g>
</svg>
