<?xml version="1.0" encoding="iso-8859-1"?>
<!-- Generator: Adobe Illustrator 19.0.0, SVG Export Plug-In . SVG Version: 6.00 Build 0)  -->
<svg version="1.1" id="Capa_1" xmlns="http://www.w3.org/2000/svg" xmlns:xlink="http://www.w3.org/1999/xlink" x="0px" y="0px"
	 viewBox="0 0 489.6 489.6" style="enable-background:new 0 0 489.6 489.6;" xml:space="preserve">
<g>
	<path d="M102.449,419.5c37.6-41.3,83-1.2,83-1.2l35.4,27.3l1.2-172.1v-60.7l0,0c0.5-16.1,13.7-29.1,29.9-29.1c16.5,0,30,13.4,30,30
		l13.5,111.9c0,0,89.4,14.9,151.8,57.6c0,0,10.9,55.2-2,106.4h-280.6C126.549,453.4,102.449,419.5,102.449,419.5z M68.149,244.5
		c16.6,0,30.1-13.5,30.1-30.1s-13.5-30.1-30.1-30.1s-30.1,13.5-30.1,30.1C37.949,231,51.449,244.5,68.149,244.5z M68.149,60.3
		c16.6,0,30.1-13.5,30.1-30.1S84.749,0,68.149,0s-30.1,13.5-30.1,30.1S51.449,60.3,68.149,60.3z M68.149,152.4
		c16.6,0,30.1-13.5,30.1-30.1s-13.5-30.2-30.1-30.2s-30.1,13.5-30.1,30.1S51.449,152.4,68.149,152.4z M160.249,244.5
		c16.6,0,30.1-13.5,30.1-30.1s-13.5-30.1-30.1-30.1s-30.1,13.5-30.1,30.1S143.649,244.5,160.249,244.5z M160.249,60.3
		c16.6,0,30.1-13.5,30.1-30.1s-13.5-30.1-30.1-30.1s-30.1,13.5-30.1,30.1S143.649,60.3,160.249,60.3z M160.249,152.4
		c16.6,0,30.1-13.5,30.1-30.1s-13.5-30.1-30.1-30.1s-30.1,13.5-30.1,30.1S143.649,152.4,160.249,152.4z M160.249,336.6
		c16.6,0,30.1-13.5,30.1-30.1s-13.5-30.1-30.1-30.1s-30.1,13.5-30.1,30.1S143.649,336.6,160.249,336.6z M252.449,0.1
		c-16.6,0-30.1,13.5-30.1,30.1s13.5,30.1,30.1,30.1s30.1-13.5,30.1-30.1S269.049,0.1,252.449,0.1z M252.449,92.2
		c-16.6,0-30.1,13.5-30.1,30.1s13.5,30.1,30.1,30.1s30.1-13.5,30.1-30.1C282.549,105.7,269.049,92.2,252.449,92.2z"/>
</g>
<g>
</g>
<g>
</g>
<g>
</g>
<g>
</g>
<g>
</g>
<g>
</g>
<g>
</g>
<g>
</g>
<g>
</g>
<g>
</g>
<g>
</g>
<g>
</g>
<g>
</g>
<g>
</g>
<g>
</g>
</svg>
