<?xml version="1.0" encoding="iso-8859-1"?>
<!-- Generator: Adobe Illustrator 19.0.0, SVG Export Plug-In . SVG Version: 6.00 Build 0)  -->
<svg version="1.1" id="Capa_1" xmlns="http://www.w3.org/2000/svg" xmlns:xlink="http://www.w3.org/1999/xlink" x="0px" y="0px"
	 viewBox="0 0 488.3 488.3" style="enable-background:new 0 0 488.3 488.3;" xml:space="preserve">
<g>
	<g>
		<path d="M309,278.75c0,35.8-29,64.8-64.8,64.8s-64.8-29-64.8-64.8s29-64.8,64.8-64.8C280,213.95,309,242.95,309,278.75z
			 M382.1,439.95H106.3C47.6,439.95,0,392.35,0,333.65v-170.5c0,0,52.5-27.7,139.6-42.7l5.3-22.8c6.7-28.9,32.5-49.3,62.1-49.3h74.3
			c29.7,0,55.4,20.4,62.1,49.3l5.3,22.8c87,15,139.6,42.7,139.6,42.7v170.5C488.4,392.35,440.8,439.95,382.1,439.95z M91.9,203.45
			c0-10.5-8.5-19-19-19s-19,8.5-19,19s8.5,19,19,19S91.9,213.95,91.9,203.45z M359.8,278.75c0-63.8-51.7-115.6-115.6-115.6
			c-63.8,0-115.6,51.7-115.6,115.6c0,63.8,51.7,115.6,115.6,115.6C308,394.25,359.8,342.55,359.8,278.75z"/>
	</g>
</g>
<g>
</g>
<g>
</g>
<g>
</g>
<g>
</g>
<g>
</g>
<g>
</g>
<g>
</g>
<g>
</g>
<g>
</g>
<g>
</g>
<g>
</g>
<g>
</g>
<g>
</g>
<g>
</g>
<g>
</g>
</svg>
