<?xml version="1.0" encoding="iso-8859-1"?>
<!-- Generator: Adobe Illustrator 19.0.0, SVG Export Plug-In . SVG Version: 6.00 Build 0)  -->
<svg version="1.1" id="Capa_1" xmlns="http://www.w3.org/2000/svg" xmlns:xlink="http://www.w3.org/1999/xlink" x="0px" y="0px"
	 viewBox="0 0 491.9 491.9" style="enable-background:new 0 0 491.9 491.9;" xml:space="preserve">
<g>
	<g>
		<path d="M441.249,0h-390.4c-28,0-50.8,22.8-50.8,50.8v390.4c0,28,22.8,50.7,50.7,50.7h390.4c28,0,50.7-22.8,50.7-50.7V50.8
			C492.049,22.8,469.249,0,441.249,0z M432.349,304l-77-77c-4.3-4.3-11.4-4.3-15.7,0l-55.9,55.9l-96.7-96.7
			c-4.3-4.3-11.4-4.3-15.7,0l-111.6,111.4V59.7h372.6V304z"/>
		<circle cx="297.049" cy="139.9" r="42.9"/>
	</g>
</g>
<g>
</g>
<g>
</g>
<g>
</g>
<g>
</g>
<g>
</g>
<g>
</g>
<g>
</g>
<g>
</g>
<g>
</g>
<g>
</g>
<g>
</g>
<g>
</g>
<g>
</g>
<g>
</g>
<g>
</g>
</svg>
