<?xml version="1.0" encoding="iso-8859-1"?>
<!-- Generator: Adobe Illustrator 19.0.0, SVG Export Plug-In . SVG Version: 6.00 Build 0)  -->
<svg version="1.1" id="Capa_1" xmlns="http://www.w3.org/2000/svg" xmlns:xlink="http://www.w3.org/1999/xlink" x="0px" y="0px"
	 viewBox="0 0 455.7 455.7" style="enable-background:new 0 0 455.7 455.7;" xml:space="preserve">
<g>
	<g>
		<path d="M257.3,111.45c52.1,13.1,90.6,60.2,90.6,116.4c0,8-0.8,15.8-2.3,23.4l99,47c7.2-22.2,11.1-45.8,11.1-70.4
			c0-115.9-86.5-211.5-198.5-225.9v109.5H257.3z"/>
		<path d="M198.5,344.25c-52.1-13.1-90.6-60.3-90.6-116.4s38.6-103.3,90.6-116.4V1.95C86.6,16.35,0,111.95,0,227.85
			s86.5,211.5,198.4,225.9v-109.5H198.5z"/>
		<path d="M320.4,304.35c-16,19.4-38,33.6-63.1,39.9v109.5c68-8.8,126.5-47.4,162-102.4L320.4,304.35z"/>
	</g>
</g>
<g>
</g>
<g>
</g>
<g>
</g>
<g>
</g>
<g>
</g>
<g>
</g>
<g>
</g>
<g>
</g>
<g>
</g>
<g>
</g>
<g>
</g>
<g>
</g>
<g>
</g>
<g>
</g>
<g>
</g>
</svg>
