<?xml version="1.0" encoding="iso-8859-1"?>
<!-- Generator: Adobe Illustrator 19.0.0, SVG Export Plug-In . SVG Version: 6.00 Build 0)  -->
<svg version="1.1" id="Capa_1" xmlns="http://www.w3.org/2000/svg" xmlns:xlink="http://www.w3.org/1999/xlink" x="0px" y="0px"
	 viewBox="0 0 490 490" style="enable-background:new 0 0 490 490;" xml:space="preserve">
<g>
	<g>
		<path d="M201.4,87.15v201.4h201.4c0,111.3-90.2,201.4-201.4,201.4C90.2,490.05,0,399.85,0,288.65C0,177.35,90.2,87.15,201.4,87.15
			z M490,244.65H245.4V0.05H267c123,0,223,100,223,223V244.65z M288.6,67.95l19.8-19.8c-6.5-1.5-13.1-2.9-19.8-3.7V67.95z
			 M288.6,116.35l55.7-55.7c-5.6-2.7-11.3-5-17.2-7.1l-38.5,38.5V116.35z M288.6,164.85l85.8-85.8c-4.7-3.5-9.4-6.8-14.4-9.8
			l-71.4,71.4V164.85z M300.3,201.45l99.4-99.4c-3.9-4.2-7.9-8.3-12.1-12.1l-99,99.1v12.4H300.3z M348.8,201.45l71.8-71.8
			c-3-5-6.4-9.7-9.8-14.4l-86.2,86.2H348.8z M397.2,201.45l39-39c-2.1-5.8-4.4-11.6-7.1-17.1l-56.1,56.1H397.2z M445.6,201.45
			c-0.8-6.9-2.2-13.7-3.8-20.3l-20.3,20.3H445.6z"/>
	</g>
</g>
<g>
</g>
<g>
</g>
<g>
</g>
<g>
</g>
<g>
</g>
<g>
</g>
<g>
</g>
<g>
</g>
<g>
</g>
<g>
</g>
<g>
</g>
<g>
</g>
<g>
</g>
<g>
</g>
<g>
</g>
</svg>
