<?xml version="1.0" encoding="iso-8859-1"?>
<!-- Generator: Adobe Illustrator 19.0.0, SVG Export Plug-In . SVG Version: 6.00 Build 0)  -->
<svg version="1.1" id="Capa_1" xmlns="http://www.w3.org/2000/svg" xmlns:xlink="http://www.w3.org/1999/xlink" x="0px" y="0px"
	 viewBox="0 0 515.977 515.977" style="enable-background:new 0 0 515.977 515.977;" xml:space="preserve">
<g>
	<g id="XMLID_1977_">
		<g id="XMLID_1846_">
			<path id="XMLID_1996_" d="M514.488,481.887l-77.5-137.9c-6.2-11-23.1-18.4-42.3-18.6c-23.6,33.1-56.9,70.5-103.5,109.3
				c-9.3,7.7-21.1,12-33.2,12c-12.1,0-23.9-4.3-33.2-12c-46.6-38.7-79.9-76.1-103.5-109.3c-19.2,0.1-36.1,7.6-42.3,18.6l-77.5,137.9
				c-6.1,10.9,7.3,22.3,26.5,22.3h110.9h238.3h110.8C507.188,504.187,520.588,492.787,514.488,481.887z"/>
		</g>
		<g id="XMLID_1998_">
			<path id="XMLID_1999_" d="M416.188,169.987c0-89.3-73.9-161.2-163.9-158.1c-78.8,2.7-144.3,64.2-151.8,142.7
				c-1.5,15.7-0.7,30.9,2.1,45.5l0,0c0,0,0.3,1.7,1,4.9c2.5,10.9,6.1,21.4,10.7,31.4c15.9,37.7,52.6,100.6,134.9,168.9
				c5.1,4.2,12.5,4.2,17.6,0c82.3-68.3,118.9-131.2,134.9-168.9c4.6-9.9,8.2-20.5,10.7-31.4c0.8-3.2,1-4.9,1-4.9l0,0
				C415.188,190.287,416.188,180.287,416.188,169.987z M257.988,268.087c-53.2,0-96.2-43.1-96.2-96.2c0-53.2,43.1-96.2,96.2-96.2
				s96.2,43.1,96.2,96.2S311.188,268.087,257.988,268.087z"/>
		</g>
	</g>
</g>
<g>
</g>
<g>
</g>
<g>
</g>
<g>
</g>
<g>
</g>
<g>
</g>
<g>
</g>
<g>
</g>
<g>
</g>
<g>
</g>
<g>
</g>
<g>
</g>
<g>
</g>
<g>
</g>
<g>
</g>
</svg>
