<?xml version="1.0" encoding="iso-8859-1"?>
<!-- Generator: Adobe Illustrator 19.0.0, SVG Export Plug-In . SVG Version: 6.00 Build 0)  -->
<svg version="1.1" id="Capa_1" xmlns="http://www.w3.org/2000/svg" xmlns:xlink="http://www.w3.org/1999/xlink" x="0px" y="0px"
	 viewBox="0 0 489.817 489.817" style="enable-background:new 0 0 489.817 489.817;" xml:space="preserve">
<g>
	<path d="M234.072,485.917c6.3,5.2,15.4,5.2,21.7,0c101.6-84.4,146.9-162,166.6-208.6c5.7-12.3,10.1-25.3,13.2-38.8
		c0.9-4,1.3-6.1,1.3-6.1l0,0c2.3-12,3.5-24.4,3.5-37.1c-0.1-110.1-91.4-199-202.5-195.2c-97.3,3.4-178.1,79.3-187.5,176.2
		c-1.9,19.4-0.8,38.2,2.6,56.1l0,0c0,0,0.3,2.1,1.3,6.1c3,13.5,7.5,26.5,13.2,38.8C87.172,323.817,132.372,401.517,234.072,485.917z
		 M125.972,197.717c0-65.6,53.2-118.9,118.9-118.9s118.9,53.2,118.9,118.9s-53.3,118.8-118.9,118.8S125.972,263.317,125.972,197.717
		z"/>
</g>
<g>
</g>
<g>
</g>
<g>
</g>
<g>
</g>
<g>
</g>
<g>
</g>
<g>
</g>
<g>
</g>
<g>
</g>
<g>
</g>
<g>
</g>
<g>
</g>
<g>
</g>
<g>
</g>
<g>
</g>
</svg>
