<?xml version="1.0" encoding="iso-8859-1"?>
<!-- Generator: Adobe Illustrator 19.0.0, SVG Export Plug-In . SVG Version: 6.00 Build 0)  -->
<svg version="1.1" id="Capa_1" xmlns="http://www.w3.org/2000/svg" xmlns:xlink="http://www.w3.org/1999/xlink" x="0px" y="0px"
	 viewBox="0 0 489.8 489.8" style="enable-background:new 0 0 489.8 489.8;" xml:space="preserve">
<g>
	<g>
		<path d="M489.8,280.92c0-13.9-11.3-25.2-25.2-25.2h-74.1c-62.1,0-112.4,50.2-112.7,112.2c-0.1,32.3-23,61-55,65
			c-38.4,4.8-71.2-25.2-71.2-62.6v-56.4c57.6-11.7,101-62.6,101-123.7v-64c0-9.1-7.3-16.4-16.4-16.4h-31.3v-79.1
			c0-12.4-9-23.4-21.3-24.6c-14.1-1.4-26,9.7-26,23.6v80.1H95.2v-79.1c0-12.4-9-23.4-21.4-24.6c-14.1-1.3-26,9.7-26,23.6v80.1H16.4
			c-9.1,0-16.4,7.3-16.4,16.4v64c0,61.1,43.4,112,101,123.7v53.5c0,61.5,47.7,114,109.2,116.3c64.6,2.4,118-49.4,118-113.5v-0.9
			c0-34.9,28.3-63.1,63.1-63.1h73.2C478.5,306.12,489.8,294.82,489.8,280.92L489.8,280.92z"/>
	</g>
</g>
<g>
</g>
<g>
</g>
<g>
</g>
<g>
</g>
<g>
</g>
<g>
</g>
<g>
</g>
<g>
</g>
<g>
</g>
<g>
</g>
<g>
</g>
<g>
</g>
<g>
</g>
<g>
</g>
<g>
</g>
</svg>
