<?xml version="1.0" encoding="iso-8859-1"?>
<!-- Generator: Adobe Illustrator 19.0.0, SVG Export Plug-In . SVG Version: 6.00 Build 0)  -->
<svg version="1.1" id="Capa_1" xmlns="http://www.w3.org/2000/svg" xmlns:xlink="http://www.w3.org/1999/xlink" x="0px" y="0px"
	 viewBox="0 0 490 490" style="enable-background:new 0 0 490 490;" xml:space="preserve">
<g>
	<path d="M29.1,274.1c0-89.4,54.6-166.3,132.3-199v72c-41.3,27.2-68.6,74-68.6,127c0,83.9,68.3,152.2,152.2,152.2
		S397.2,358,397.2,274.1c0-53-27.3-99.8-68.6-127v-72c77.6,32.7,132.3,109.6,132.3,199C460.9,393.2,364,490,245,490
		S29.1,393.2,29.1,274.1z M245,0c-17.6,0-31.8,14.3-31.8,31.8v146.6c0,17.6,14.3,31.8,31.8,31.8s31.8-14.3,31.8-31.8V31.8
		C276.8,14.3,262.6,0,245,0z"/>
</g>
<g>
</g>
<g>
</g>
<g>
</g>
<g>
</g>
<g>
</g>
<g>
</g>
<g>
</g>
<g>
</g>
<g>
</g>
<g>
</g>
<g>
</g>
<g>
</g>
<g>
</g>
<g>
</g>
<g>
</g>
</svg>
