<?xml version="1.0" encoding="iso-8859-1"?>
<!-- Generator: Adobe Illustrator 19.0.0, SVG Export Plug-In . SVG Version: 6.00 Build 0)  -->
<svg version="1.1" id="Capa_1" xmlns="http://www.w3.org/2000/svg" xmlns:xlink="http://www.w3.org/1999/xlink" x="0px" y="0px"
	 viewBox="0 0 488.932 488.932" style="enable-background:new 0 0 488.932 488.932;" xml:space="preserve">
<g>
	<path d="M243.158,61.361v-57.6c0-3.2,4-4.9,6.7-2.9l118.4,87c2,1.5,2,4.4,0,5.9l-118.4,87c-2.7,2-6.7,0.2-6.7-2.9v-57.5
		c-87.8,1.4-158.1,76-152.1,165.4c5.1,76.8,67.7,139.1,144.5,144c81.4,5.2,150.6-53,163-129.9c2.3-14.3,14.7-24.7,29.2-24.7l0,0
		c17.9,0,31.8,15.9,29,33.5c-17.4,109.7-118.5,192-235.7,178.9c-98-11-176.7-89.4-187.8-187.4
		C18.558,171.961,118.158,62.761,243.158,61.361z"/>
</g>
<g>
</g>
<g>
</g>
<g>
</g>
<g>
</g>
<g>
</g>
<g>
</g>
<g>
</g>
<g>
</g>
<g>
</g>
<g>
</g>
<g>
</g>
<g>
</g>
<g>
</g>
<g>
</g>
<g>
</g>
</svg>
