<?xml version="1.0" encoding="iso-8859-1"?>
<!-- Generator: Adobe Illustrator 19.0.0, SVG Export Plug-In . SVG Version: 6.00 Build 0)  -->
<svg version="1.1" id="Capa_1" xmlns="http://www.w3.org/2000/svg" xmlns:xlink="http://www.w3.org/1999/xlink" x="0px" y="0px"
	 viewBox="0 0 490.549 490.549" style="enable-background:new 0 0 490.549 490.549;" xml:space="preserve">
<g>
	<g>
		<path d="M298.524,182.874v-49.9h-110.1h-49.1v145.1c0,3-1.4,5.7-3.7,7.5l-59.3,45c-5.1,3.9-12.5,0.1-12.5-6.4v-194.4
			c0-40.8,32.3-73.9,72.2-73.9h52.3h110.1v-49.9c0-4.9,5.5-7.7,9.3-4.8l116.6,88.5c3.1,2.4,3.1,7.2,0,9.6l-116.5,88.5
			C303.924,190.674,298.524,187.774,298.524,182.874z M426.724,360.774v-194.4c0-6.6-7.3-10.3-12.4-6.4l-59.3,45
			c-2.3,1.8-3.7,4.5-3.7,7.5v145.1h-49.1h-110.1v-49.9c0-4.9-5.5-7.7-9.3-4.8l-116.5,88.4c-3.1,2.4-3.1,7.2,0,9.6l116.5,88.5
			c3.8,2.9,9.3,0.1,9.3-4.8v-49.9h110.1h52.3C394.324,434.674,426.724,401.574,426.724,360.774z"/>
	</g>
</g>
<g>
</g>
<g>
</g>
<g>
</g>
<g>
</g>
<g>
</g>
<g>
</g>
<g>
</g>
<g>
</g>
<g>
</g>
<g>
</g>
<g>
</g>
<g>
</g>
<g>
</g>
<g>
</g>
<g>
</g>
</svg>
