<?xml version="1.0" encoding="iso-8859-1"?>
<!-- Generator: Adobe Illustrator 19.0.0, SVG Export Plug-In . SVG Version: 6.00 Build 0)  -->
<svg version="1.1" id="Capa_1" xmlns="http://www.w3.org/2000/svg" xmlns:xlink="http://www.w3.org/1999/xlink" x="0px" y="0px"
	 viewBox="0 0 489.363 489.363" style="enable-background:new 0 0 489.363 489.363;" xml:space="preserve">
<g>
	<path d="M57.506,57.463c-76.6,76.6-76.6,201.2,0,277.8c65.3,65.3,165.6,74.7,241.2,28.6l112,112c18,18,47.2,18,65.1,0
		c18-18,18-47.1,0-65.1l-112-112.2c46.2-75.6,36.8-175.8-28.6-241.2C258.606-19.137,134.006-19.137,57.506,57.463z M278.006,114.663
		c45,45,45,118.3,0,163.3s-118.3,45-163.3,0s-45-118.3,0-163.3S233.006,69.663,278.006,114.663z"/>
</g>
<g>
</g>
<g>
</g>
<g>
</g>
<g>
</g>
<g>
</g>
<g>
</g>
<g>
</g>
<g>
</g>
<g>
</g>
<g>
</g>
<g>
</g>
<g>
</g>
<g>
</g>
<g>
</g>
<g>
</g>
</svg>
