<?xml version="1.0" encoding="iso-8859-1"?>
<!-- Generator: Adobe Illustrator 19.0.0, SVG Export Plug-In . SVG Version: 6.00 Build 0)  -->
<svg version="1.1" id="Capa_1" xmlns="http://www.w3.org/2000/svg" xmlns:xlink="http://www.w3.org/1999/xlink" x="0px" y="0px"
	 viewBox="0 0 488.9 488.9" style="enable-background:new 0 0 488.9 488.9;" xml:space="preserve">
<g>
	<g>
		<path d="M371.2,353.2c44,0,79.6-35.6,79.6-79.6l0,0c0-44-35.6-79.6-79.6-79.6H261.8v-34.8h109.5c44,0,79.6-35.6,79.6-79.6l0,0
			c0-44-35.6-79.6-79.6-79.6H117.6C73.6,0,38,35.6,38,79.6l0,0c0,44,35.6,79.6,79.6,79.6h109.5V194H117.6c-44,0-79.6,35.6-79.6,79.6
			l0,0c0,44,35.6,79.6,79.6,79.6h109.5v47.4c-11.2,4.6-20.2,13.5-24.9,24.6h-85.6c-6.1-10.9-17.7-18.2-31-18.2
			C65.9,407,50,422.9,50,442.6s15.9,35.6,35.6,35.6c13.3,0,24.9-7.3,31-18.2h85.3c6.7,16.9,23.2,28.9,42.5,28.9s35.8-12,42.5-28.9
			h85.3c6.1,10.9,17.7,18.2,31,18.2c19.7,0,35.6-15.9,35.6-35.6S422.9,407,403.2,407c-13.3,0-24.9,7.3-31,18.2h-85.6
			c-4.7-11.1-13.7-20-24.9-24.6v-47.4H371.2z M141.4,98.8c-10.5,0-19.1-8.5-19.1-19.1c0-10.5,8.6-19.1,19.1-19.1s19.1,8.5,19.1,19.1
			C160.5,90.2,151.9,98.8,141.4,98.8z M203,98.8c-10.5,0-19.1-8.5-19.1-19.1c0-10.5,8.6-19.1,19.1-19.1s19.1,8.5,19.1,19.1
			C222.1,90.2,213.6,98.8,203,98.8z M141.4,292.7c-10.5,0-19.1-8.5-19.1-19.1c0-10.5,8.6-19.1,19.1-19.1s19.1,8.5,19.1,19.1
			S151.9,292.7,141.4,292.7z M203,292.7c-10.5,0-19.1-8.5-19.1-19.1c0-10.5,8.6-19.1,19.1-19.1s19.1,8.5,19.1,19.1
			C222.1,284.2,213.6,292.7,203,292.7z M263,443.1c0,10.3-8.3,18.6-18.6,18.6c-10.3,0-18.6-8.3-18.6-18.6c0-10.3,8.3-18.6,18.6-18.6
			C254.7,424.5,263,432.8,263,443.1z"/>
	</g>
</g>
<g>
</g>
<g>
</g>
<g>
</g>
<g>
</g>
<g>
</g>
<g>
</g>
<g>
</g>
<g>
</g>
<g>
</g>
<g>
</g>
<g>
</g>
<g>
</g>
<g>
</g>
<g>
</g>
<g>
</g>
</svg>
