<?xml version="1.0" encoding="iso-8859-1"?>
<!-- Generator: Adobe Illustrator 19.0.0, SVG Export Plug-In . SVG Version: 6.00 Build 0)  -->
<svg version="1.1" id="Capa_1" xmlns="http://www.w3.org/2000/svg" xmlns:xlink="http://www.w3.org/1999/xlink" x="0px" y="0px"
	 viewBox="0 0 489.225 489.225" style="enable-background:new 0 0 489.225 489.225;" xml:space="preserve">
<g>
	<path d="M131.8,333.563H41.6c-23,0-41.6-18.6-41.6-41.6v-94.9c0-23,18.6-41.6,41.6-41.6h86l103.5-71.5c10.8-6.2,24.2,1.6,24.2,14
		v293.5c0,12.4-13.5,20.2-24.2,14L131.8,333.563z M372.8,88.562c86,86,86,226,0,312.1l36.7,36.7c106.3-106.3,106.3-279.2,0-385.5
		L372.8,88.562z M340.7,368.462c68.3-68.3,68.3-179.5,0-247.8l-36.7,36.7c23.3,23.3,36.1,54.3,36.1,87.2s-12.8,63.9-36.1,87.2
		L340.7,368.462z"/>
</g>
<g>
</g>
<g>
</g>
<g>
</g>
<g>
</g>
<g>
</g>
<g>
</g>
<g>
</g>
<g>
</g>
<g>
</g>
<g>
</g>
<g>
</g>
<g>
</g>
<g>
</g>
<g>
</g>
<g>
</g>
</svg>
