<?xml version="1.0" encoding="iso-8859-1"?>
<!-- Generator: Adobe Illustrator 19.0.0, SVG Export Plug-In . SVG Version: 6.00 Build 0)  -->
<svg version="1.1" id="Capa_1" xmlns="http://www.w3.org/2000/svg" xmlns:xlink="http://www.w3.org/1999/xlink" x="0px" y="0px"
	 viewBox="0 0 486.4 486.4" style="enable-background:new 0 0 486.4 486.4;" xml:space="preserve">
<g>
	<g>
		<path d="M231.8,154.15c0-11.4,9.2-20.6,20.6-20.6s20.6,9.2,20.6,20.6c0,11.4-9.2,20.6-20.6,20.6S231.8,165.55,231.8,154.15z
			 M163.1,154.15c0-11.4,9.2-20.6,20.6-20.6c11.4,0,20.6,9.2,20.6,20.6c0,11.4-9.2,20.6-20.6,20.6
			C172.3,174.75,163.1,165.55,163.1,154.15z M94.4,154.15c0-11.4,9.2-20.6,20.6-20.6c11.4,0,20.6,9.2,20.6,20.6
			c0,11.4-9.2,20.6-20.6,20.6C103.7,174.75,94.4,165.55,94.4,154.15z"/>
		<g>
			<path d="M149.4,320.05h6.2v27.3c0,8.8,7.1,15.9,15.9,15.9h195l41.3,41.3v-41.3h26c8.8,0,15.9-7.1,15.9-15.9v-159
				c0-8.8-7.1-15.9-15.9-15.9h-31.6v-36.7h31.6c29,0,52.6,23.6,52.6,52.6v159c0,25.3-18,46.6-41.9,51.5v46.7
				c0,10.9-8.9,19.7-19.7,19.7c-5.3,0-10.2-2.1-13.9-5.8l-59.6-59.6H171.6c-28,0-50.9-22-52.5-49.6L149.4,320.05z"/>
		</g>
		<g>
			<path d="M48.1,345.35c-4-3.7-6.2-9-6.2-14.4v-46.7c-23.9-5-41.9-26.2-41.9-51.5v-159c0-29,23.6-52.6,52.6-52.6h262.3
				c29,0,52.6,23.6,52.6,52.6v159c0,29-23.6,52.6-52.6,52.6H135.1l-59.5,59.5c-3.7,3.7-8.7,5.8-14,5.8l0,0
				C56.5,350.75,51.7,348.85,48.1,345.35z M52.6,57.85c-8.8,0-15.9,7.1-15.9,15.9v159c0,8.8,7.1,15.9,15.9,15.9h26v41.3l41.3-41.3
				h195c8.8,0,15.9-7.1,15.9-15.9v-159c0-8.8-7.1-15.9-15.9-15.9H52.6z"/>
		</g>
	</g>
</g>
<g>
</g>
<g>
</g>
<g>
</g>
<g>
</g>
<g>
</g>
<g>
</g>
<g>
</g>
<g>
</g>
<g>
</g>
<g>
</g>
<g>
</g>
<g>
</g>
<g>
</g>
<g>
</g>
<g>
</g>
</svg>
