<?xml version="1.0" encoding="iso-8859-1"?>
<!-- Generator: Adobe Illustrator 19.0.0, SVG Export Plug-In . SVG Version: 6.00 Build 0)  -->
<svg version="1.1" id="Capa_1" xmlns="http://www.w3.org/2000/svg" xmlns:xlink="http://www.w3.org/1999/xlink" x="0px" y="0px"
	 viewBox="0 0 487.2 487.2" style="enable-background:new 0 0 487.2 487.2;" xml:space="preserve">
<g>
	<path d="M436.7,31.696H50.5c-27.9,0-50.5,22.6-50.5,50.5v234.1c0,27.9,22.6,50.5,50.5,50.5h11.2v81.3c0,6.6,7.9,9.9,12.6,5.2
		l86.5-86.5h275.9c27.9,0,50.5-22.6,50.5-50.5v-234.2C487.2,54.296,464.6,31.696,436.7,31.696z M156.1,224.996
		c-14.5,0-26.3-11.8-26.3-26.3s11.8-26.3,26.3-26.3s26.3,11.8,26.3,26.3S170.6,224.996,156.1,224.996z M243.6,224.996
		c-14.5,0-26.3-11.8-26.3-26.3s11.8-26.3,26.3-26.3s26.3,11.8,26.3,26.3S258.1,224.996,243.6,224.996z M331.1,224.996
		c-14.5,0-26.3-11.8-26.3-26.3s11.8-26.3,26.3-26.3s26.3,11.8,26.3,26.3S345.6,224.996,331.1,224.996z"/>
</g>
<g>
</g>
<g>
</g>
<g>
</g>
<g>
</g>
<g>
</g>
<g>
</g>
<g>
</g>
<g>
</g>
<g>
</g>
<g>
</g>
<g>
</g>
<g>
</g>
<g>
</g>
<g>
</g>
<g>
</g>
</svg>
