<?xml version="1.0" encoding="iso-8859-1"?>
<!-- Generator: Adobe Illustrator 19.0.0, SVG Export Plug-In . SVG Version: 6.00 Build 0)  -->
<svg version="1.1" id="Capa_1" xmlns="http://www.w3.org/2000/svg" xmlns:xlink="http://www.w3.org/1999/xlink" x="0px" y="0px"
	 viewBox="0 0 490.1 490.1" style="enable-background:new 0 0 490.1 490.1;" xml:space="preserve">
<g>
	<g>
		<path d="M245,30.25c-135.3,0-245,96.2-245,214.8c0,51.1,20.4,98.1,54.5,135c-6.3,17-17.8,36.2-38.7,50c-5.2,3.4-3.6,11.4,2.6,12.3
			c21.7,3,59.1,3.7,93.6-17c38.3,21.8,84,34.5,133.1,34.5c135.3,0,245-96.2,245-214.8C490,126.45,380.3,30.25,245,30.25z
			 M245,109.85c27.2,0,49.3,22.1,49.3,49.3s-22.1,49.3-49.3,49.3s-49.3-22.1-49.3-49.3S217.8,109.85,245,109.85z M333.1,353.25
			c-24.8,15.6-55.2,24.8-88.1,24.8s-63.3-9.2-88.1-24.8v-33.6c0-48.7,39.5-88.1,88.1-88.1s88.1,39.5,88.1,88.1V353.25z"/>
	</g>
</g>
<g>
</g>
<g>
</g>
<g>
</g>
<g>
</g>
<g>
</g>
<g>
</g>
<g>
</g>
<g>
</g>
<g>
</g>
<g>
</g>
<g>
</g>
<g>
</g>
<g>
</g>
<g>
</g>
<g>
</g>
</svg>
