<?xml version="1.0" encoding="iso-8859-1"?>
<!-- Generator: Adobe Illustrator 19.0.0, SVG Export Plug-In . SVG Version: 6.00 Build 0)  -->
<svg version="1.1" id="Capa_1" xmlns="http://www.w3.org/2000/svg" xmlns:xlink="http://www.w3.org/1999/xlink" x="0px" y="0px"
	 viewBox="0 0 490 490" style="enable-background:new 0 0 490 490;" xml:space="preserve">
<g>
	<g>
		<path d="M245,0C109.9,0,0,109.9,0,245s109.9,245,245,245s245-109.9,245-245S380.1,0,245,0z M245,433.1
			c-103.7,0-188.1-84.4-188.1-188.1S141.3,56.9,245,56.9S433.1,141.3,433.1,245S348.7,433.1,245,433.1z M118.5,186.5
			c3.6-7.7,12.7-11,20.4-7.4c7.6,3.5,11,12.7,7.4,20.3c-2.3,4.9-6.8,8.1-11.8,8.7c-2.8,0.4-5.7,0-8.5-1.3
			C118.3,203.3,114.9,194.2,118.5,186.5z M342.6,200.4c-3.5-7.7-0.1-16.8,7.6-20.3s16.8-0.1,20.3,7.6c3.5,7.7,0.1,16.8-7.6,20.3
			c-1.4,0.6-2.8,1-4.2,1.2C352.1,210.2,345.5,206.7,342.6,200.4z M347.1,314.3c6.4,5.6,7,15.2,1.5,21.6c-2.6,2.9-5.9,4.6-9.5,5.1
			c-4.2,0.6-8.7-0.6-12.2-3.6c-6.4-5.6-7-15.2-1.5-21.6C331.1,309.4,340.7,308.8,347.1,314.3z M229.5,121.5
			c0-8.4,6.9-15.3,15.4-15.2c8.4,0,15.3,6.9,15.2,15.4c0,7.7-5.7,14.1-13.2,15.1c-0.7,0.1-1.4,0.2-2.1,0.2
			C236.3,136.8,229.5,130,229.5,121.5z M162.5,315.3c5.5,6.4,4.8,16.1-1.6,21.6c-2.3,2-5.1,3.2-7.9,3.6c-5,0.7-10.2-1.1-13.7-5.2
			c-5.5-6.4-4.8-16.1,1.6-21.6C147.3,308.2,156.9,308.9,162.5,315.3z M381.3,265.1c-1,6.9-6.5,12-13.1,12.9c-1.4,0.2-2.8,0.2-4.3,0
			c-8.4-1.2-14.1-9-12.9-17.4c1.2-8.3,9-14.1,17.3-12.9C376.7,248.9,382.5,256.7,381.3,265.1z M124.3,277.2L124.3,277.2
			c-8.4,1.2-16.1-4.6-17.3-13c0-0.1,0-0.2,0-0.3c0-0.1,0-0.2,0-0.3c-1.2-8.4,4.7-16.1,13.1-17.3c8.4-1.2,16.1,4.7,17.3,13.1
			c0,0.1,0,0.2,0,0.3c0,0,0,0.1,0,0.2C138.6,268.3,132.7,276.1,124.3,277.2z M191.1,132.5c4.5,7.2,2.4,16.6-4.7,21.1
			c-1.9,1.2-4,2-6.1,2.3c-5.8,0.8-11.7-1.7-15-6.9c-4.5-7.2-2.4-16.6,4.7-21.1C177,123.3,186.5,125.4,191.1,132.5z M325.8,146.8
			c3.8-7.1,1.5-15.8-5.3-20.1c-6.7-4.3-15.7-2.7-20.5,3.7L242.1,207c-11.4,0.9-22.4,6.9-29,17.3c-11.3,17.6-6.1,41.1,11.5,52.4
			c17.6,11.3,41.1,6.1,52.4-11.5c6.7-10.4,7.5-22.8,3.6-33.6L325.8,146.8z M257.9,253c-4.6,7.1-14,9.2-21.1,4.7
			c-7.1-4.6-9.2-14-4.7-21.1c4.6-7.1,14-9.2,21.1-4.7C260.4,236.4,262.5,245.9,257.9,253z"/>
	</g>
</g>
<g>
</g>
<g>
</g>
<g>
</g>
<g>
</g>
<g>
</g>
<g>
</g>
<g>
</g>
<g>
</g>
<g>
</g>
<g>
</g>
<g>
</g>
<g>
</g>
<g>
</g>
<g>
</g>
<g>
</g>
</svg>
