<?xml version="1.0" encoding="iso-8859-1"?>
<!-- Generator: Adobe Illustrator 19.0.0, SVG Export Plug-In . SVG Version: 6.00 Build 0)  -->
<svg version="1.1" id="Capa_1" xmlns="http://www.w3.org/2000/svg" xmlns:xlink="http://www.w3.org/1999/xlink" x="0px" y="0px"
	 viewBox="0 0 490.5 490.5" style="enable-background:new 0 0 490.5 490.5;" xml:space="preserve">
<g>
	<g>
		<g>
			<path d="M446.6,82.443h-237c-24.2,0-43.8,19.6-43.8,43.8v178.6c0,24.2,19.6,43.8,43.8,43.8h44.6v50.5c0,7.9,9.6,11.9,15.2,6.3
				l56.4-56.4c0.1-0.1,0.2-0.3,0.3-0.4h120.6c24.2,0,43.8-19.6,43.8-43.8v-178.6C490.4,102.043,470.8,82.443,446.6,82.443z"/>
		</g>
		<g>
			<path d="M108.7,109.343H20c-11.1,0-20,9-20,20l0,0c0,11.1,9,20,20,20h88.7c11.1,0,20-9,20-20l0,0
				C128.8,118.243,119.8,109.343,108.7,109.343z"/>
		</g>
		<g>
			<path d="M108.7,189.443H20c-11.1,0-20,9-20,20l0,0c0,11.1,9,20,20,20h88.7c11.1,0,20-9,20-20l0,0
				C128.8,198.443,119.8,189.443,108.7,189.443z"/>
		</g>
		<g>
			<path d="M108.7,269.643H20c-11.1,0-20,9-20,20l0,0c0,11.1,9,20,20,20h88.7c11.1,0,20-9,20-20l0,0
				C128.8,278.543,119.8,269.643,108.7,269.643z"/>
		</g>
	</g>
</g>
<g>
</g>
<g>
</g>
<g>
</g>
<g>
</g>
<g>
</g>
<g>
</g>
<g>
</g>
<g>
</g>
<g>
</g>
<g>
</g>
<g>
</g>
<g>
</g>
<g>
</g>
<g>
</g>
<g>
</g>
</svg>
