<?xml version="1.0" encoding="iso-8859-1"?>
<!-- Generator: Adobe Illustrator 19.0.0, SVG Export Plug-In . SVG Version: 6.00 Build 0)  -->
<svg version="1.1" id="Capa_1" xmlns="http://www.w3.org/2000/svg" xmlns:xlink="http://www.w3.org/1999/xlink" x="0px" y="0px"
	 viewBox="0 0 488.5 488.5" style="enable-background:new 0 0 488.5 488.5;" xml:space="preserve">
<g>
	<g>
		<g>
			<g>
				<path d="M108.4,114.815H20c-11,0-20,8.9-20,20l0,0c0,11,8.9,20,20,20h88.4c11,0,20-8.9,20-20l0,0
					C128.4,123.815,119.4,114.815,108.4,114.815z"/>
			</g>
			<g>
				<path d="M108.4,194.615H20c-11,0-20,8.9-20,20l0,0c0,11,8.9,20,20,20h88.4c11,0,20-8.9,20-20l0,0
					C128.4,203.615,119.4,194.615,108.4,194.615z"/>
			</g>
			<g>
				<path d="M108.4,274.515H20c-11,0-20,8.9-20,20l0,0c0,11,8.9,20,20,20h88.4c11,0,20-8.9,20-20l0,0
					C128.4,283.415,119.4,274.515,108.4,274.515z"/>
			</g>
		</g>
		<g>
			<path d="M444.9,82.115h-236c-24.1,0-43.6,19.5-43.6,43.6v177.9c0,24.1,19.5,43.6,43.6,43.6h44.3v50.3c0,7.9,9.5,11.8,15.1,6.3
				l56.2-56.2c0.1-0.1,0.2-0.3,0.3-0.4h120.1c24.1,0,43.6-19.5,43.6-43.6v-177.9C488.5,101.615,469,82.115,444.9,82.115z
				 M268.6,233.815c-10.6,0-19.2-8.6-19.2-19.2c0-10.6,8.6-19.2,19.2-19.2s19.2,8.6,19.2,19.2S279.2,233.815,268.6,233.815z
				 M326.9,233.815c-10.6,0-19.2-8.6-19.2-19.2c0-10.6,8.6-19.2,19.2-19.2s19.2,8.6,19.2,19.2
				C346.1,225.215,337.5,233.815,326.9,233.815z M385.2,233.815c-10.6,0-19.2-8.6-19.2-19.2c0-10.6,8.6-19.2,19.2-19.2
				s19.2,8.6,19.2,19.2S395.8,233.815,385.2,233.815z"/>
		</g>
	</g>
</g>
<g>
</g>
<g>
</g>
<g>
</g>
<g>
</g>
<g>
</g>
<g>
</g>
<g>
</g>
<g>
</g>
<g>
</g>
<g>
</g>
<g>
</g>
<g>
</g>
<g>
</g>
<g>
</g>
<g>
</g>
</svg>
