<?xml version="1.0" encoding="iso-8859-1"?>
<!-- Generator: Adobe Illustrator 19.0.0, SVG Export Plug-In . SVG Version: 6.00 Build 0)  -->
<svg version="1.1" id="Capa_1" xmlns="http://www.w3.org/2000/svg" xmlns:xlink="http://www.w3.org/1999/xlink" x="0px" y="0px"
	 viewBox="0 0 490.451 490.451" style="enable-background:new 0 0 490.451 490.451;" xml:space="preserve">
<g>
	<path d="M463.226,168.626l-138.2-10l-52.7-128.2c-5-12.1-16.1-18.2-27.1-18.2c-11,0-22.1,6.1-27.1,18.2l-52.7,128.2l-138.2,10
		c-25.6,1.4-37,34.2-17.1,51.3l106.9,88.3l-32.8,133.9c-5.5,19.7,10.1,36.1,27.4,36.1c5.2,0,10.5-1.5,15.4-4.7l116.8-72.7
		l118.3,72.7c4.9,3.3,10.2,4.7,15.2,4.7c16.9,0,31.9-16.4,27.5-36.1l-32.8-133.9l108.3-88.3
		C500.226,202.826,488.826,170.026,463.226,168.626z"/>
</g>
<g>
</g>
<g>
</g>
<g>
</g>
<g>
</g>
<g>
</g>
<g>
</g>
<g>
</g>
<g>
</g>
<g>
</g>
<g>
</g>
<g>
</g>
<g>
</g>
<g>
</g>
<g>
</g>
<g>
</g>
</svg>
