<?xml version="1.0" encoding="iso-8859-1"?>
<!-- Generator: Adobe Illustrator 19.0.0, SVG Export Plug-In . SVG Version: 6.00 Build 0)  -->
<svg version="1.1" id="Capa_1" xmlns="http://www.w3.org/2000/svg" xmlns:xlink="http://www.w3.org/1999/xlink" x="0px" y="0px"
	 viewBox="0 0 488.451 488.451" style="enable-background:new 0 0 488.451 488.451;" xml:space="preserve">
<g>
	<path d="M20.026,228.476c7.6,10.4,7.7,24.5,0.3,35l-9,12.7c-10.4,14.7-5.6,35.3,10.3,43.8l13.7,7.3c11.4,6.1,17.6,18.7,15.4,31.5
		l-2.6,15.3c-3,17.8,10.3,34.2,28.3,35l15.5,0.7c12.9,0.5,24,9.3,27.6,21.6l4.3,14.9c5,17.3,24.1,26.4,40.7,19.2l14.3-6.1
		c11.8-5.1,25.6-2.1,34.2,7.5l10.4,11.6c12.1,13.4,33.2,13.3,45-0.3l10.2-11.7c8.5-9.7,22.2-13,34.1-8.1l14.4,5.9
		c16.7,6.9,35.6-2.4,40.4-19.8l4.1-15c3.4-12.4,14.4-21.3,27.2-22.1l15.5-0.9c18-1,31.1-17.6,27.8-35.4l-2.8-15.3
		c-2.3-12.7,3.7-25.4,15-31.7l13.6-7.5c15.8-8.8,20.3-29.4,9.7-44l-9.2-12.6c-7.6-10.4-7.7-24.5-0.3-35l9-12.7
		c10.4-14.7,5.6-35.3-10.3-43.8l-13.7-7.3c-11.4-6.1-17.6-18.7-15.4-31.5l2.6-15.3c3-17.8-10.3-34.2-28.3-35l-15.5-0.7
		c-12.9-0.5-24-9.3-27.6-21.6l-4.3-14.9c-5-17.3-24.1-26.4-40.7-19.2l-14.3,6.1c-11.8,5.1-25.6,2.1-34.2-7.5l-10.4-11.6
		c-12.1-13.4-33.2-13.3-45,0.3l-10.2,11.7c-8.5,9.7-22.2,13-34.1,8.1l-14.4-5.9c-16.7-6.9-35.6,2.4-40.4,19.8l-4.1,15
		c-3.4,12.4-14.4,21.3-27.2,22l-15.5,0.9c-18,1-31.1,17.6-27.8,35.4l2.8,15.3c2.3,12.7-3.7,25.4-15,31.7l-13.6,7.5
		c-15.8,8.8-20.3,29.4-9.7,44L20.026,228.476z M123.726,193.576l76.7-5.6l29-71.2c5.5-13.4,24.4-13.4,29.9,0l29,71.2l76.7,5.6
		c14.4,1,20.3,19.1,9.2,28.4l-58.7,49.6l18.4,74.6c3.5,14-11.9,25.2-24.2,17.6l-65.4-40.6l-65.3,40.5c-12.3,7.6-27.6-3.5-24.2-17.6
		l18.4-74.6l-58.7-49.6C103.426,212.676,109.326,194.676,123.726,193.576z"/>
</g>
<g>
</g>
<g>
</g>
<g>
</g>
<g>
</g>
<g>
</g>
<g>
</g>
<g>
</g>
<g>
</g>
<g>
</g>
<g>
</g>
<g>
</g>
<g>
</g>
<g>
</g>
<g>
</g>
<g>
</g>
</svg>
