<?xml version="1.0" encoding="iso-8859-1"?>
<!-- Generator: Adobe Illustrator 19.0.0, SVG Export Plug-In . SVG Version: 6.00 Build 0)  -->
<svg version="1.1" id="Capa_1" xmlns="http://www.w3.org/2000/svg" xmlns:xlink="http://www.w3.org/1999/xlink" x="0px" y="0px"
	 viewBox="0 0 490.1 490.1" style="enable-background:new 0 0 490.1 490.1;" xml:space="preserve">
<g>
	<g>
		<path d="M148.4,393.45h193.3c81.8,0,148.4-66.6,148.4-148.4s-66.6-148.4-148.4-148.4H148.4C66.6,96.65,0,163.25,0,245.05
			S66.6,393.45,148.4,393.45z M148.4,136.45h193.3c59.9,0,108.6,48.7,108.6,108.6s-48.7,108.6-108.6,108.6H148.4
			c-59.9,0-108.6-48.7-108.6-108.6C39.7,185.15,88.5,136.45,148.4,136.45z M76.7,245.05c0-41.4,33.6-75,75-75s75,33.6,75,75
			s-33.6,75-75,75S76.7,286.45,76.7,245.05z"/>
	</g>
</g>
<g>
</g>
<g>
</g>
<g>
</g>
<g>
</g>
<g>
</g>
<g>
</g>
<g>
</g>
<g>
</g>
<g>
</g>
<g>
</g>
<g>
</g>
<g>
</g>
<g>
</g>
<g>
</g>
<g>
</g>
</svg>
