<?xml version="1.0" encoding="iso-8859-1"?>
<!-- Generator: Adobe Illustrator 19.0.0, SVG Export Plug-In . SVG Version: 6.00 Build 0)  -->
<svg version="1.1" id="Capa_1" xmlns="http://www.w3.org/2000/svg" xmlns:xlink="http://www.w3.org/1999/xlink" x="0px" y="0px"
	 viewBox="0 0 489.1 489.1" style="enable-background:new 0 0 489.1 489.1;" xml:space="preserve">
<g>
	<path d="M57.2,331.9c-10.1,0-17.6,9.3-15.5,19.2c8.5,40.4,43.4,73.4,89.6,86.9v25.6c0,14.1,11.4,25.5,25.5,25.5h176.1
		c14.1,0,25.5-11.4,25.5-25.5v-25.8c45.9-13.6,80.5-46.5,89-86.7c2.1-9.9-5.4-19.2-15.5-19.2h-73.5v-33.3
		c45.9-13.6,80.5-46.5,89-86.7c2.1-9.9-5.4-19.2-15.5-19.2h-73.5v-33.3c45.9-13.6,80.5-46.5,89-86.7c2.1-9.9-5.4-19.2-15.5-19.2
		h-73.5v-28C358.4,11.4,347,0,332.9,0H156.7c-14.1,0-25.5,11.4-25.5,25.5v27.8h-74c-10.1,0-17.6,9.3-15.5,19.2
		c8.5,40.4,43.4,73.4,89.6,86.9v33.2H57.2c-10.1,0-17.6,9.3-15.5,19.2c8.5,40.4,43.4,73.4,89.6,86.9v33.2L57.2,331.9L57.2,331.9z
		 M244.8,60.5c27.2,0,49.2,22,49.2,49.2s-22,49.2-49.2,49.2s-49.2-22-49.2-49.2S217.6,60.5,244.8,60.5z M244.8,199.8
		c27.2,0,49.2,22,49.2,49.2s-22,49.2-49.2,49.2s-49.2-22-49.2-49.2C195.6,221.8,217.6,199.8,244.8,199.8z M244.8,339.1
		c27.2,0,49.2,22,49.2,49.2s-22,49.2-49.2,49.2s-49.2-22-49.2-49.2C195.6,361.1,217.6,339.1,244.8,339.1z"/>
</g>
<g>
</g>
<g>
</g>
<g>
</g>
<g>
</g>
<g>
</g>
<g>
</g>
<g>
</g>
<g>
</g>
<g>
</g>
<g>
</g>
<g>
</g>
<g>
</g>
<g>
</g>
<g>
</g>
<g>
</g>
</svg>
