<?xml version="1.0" encoding="iso-8859-1"?>
<!-- Generator: Adobe Illustrator 19.0.0, SVG Export Plug-In . SVG Version: 6.00 Build 0)  -->
<svg version="1.1" id="Capa_1" xmlns="http://www.w3.org/2000/svg" xmlns:xlink="http://www.w3.org/1999/xlink" x="0px" y="0px"
	 viewBox="0 0 489.3 489.3" style="enable-background:new 0 0 489.3 489.3;" xml:space="preserve">
<g>
	<g>
		<path d="M329.45,327.5c-4.5,0-8.1,3.4-8.6,7.9c-3.9,38.6-36.6,68.7-76.2,68.7c-39.7,0-72.3-30.1-76.2-68.7
			c-0.5-4.5-4.1-7.9-8.6-7.9H55.65c-21.8,0-39.5,17.7-39.5,39.5v82.8c0,21.8,17.7,39.5,39.5,39.5h378c21.8,0,39.5-17.7,39.5-39.5
			V367c0-21.8-17.7-39.5-39.5-39.5H329.45z"/>
		<path d="M185.65,128.7l30.9-30.9v201.5c0,15.5,12.6,28.1,28.1,28.1l0,0c15.5,0,28.1-12.6,28.1-28.1V97.9l30.9,30.8
			c10.9,10.9,28.8,12,40,1.4c11.6-10.9,11.8-29.2,0.6-40.3l-82.9-82.9c-9.2-9.2-24.1-9.2-33.3,0l-82.9,82.9
			c-11.2,11.2-11,29.4,0.6,40.3C156.95,140.7,174.85,139.6,185.65,128.7z"/>
	</g>
</g>
<g>
</g>
<g>
</g>
<g>
</g>
<g>
</g>
<g>
</g>
<g>
</g>
<g>
</g>
<g>
</g>
<g>
</g>
<g>
</g>
<g>
</g>
<g>
</g>
<g>
</g>
<g>
</g>
<g>
</g>
</svg>
