<?xml version="1.0" encoding="iso-8859-1"?>
<!-- Generator: Adobe Illustrator 19.0.0, SVG Export Plug-In . SVG Version: 6.00 Build 0)  -->
<svg version="1.1" id="Capa_1" xmlns="http://www.w3.org/2000/svg" xmlns:xlink="http://www.w3.org/1999/xlink" x="0px" y="0px"
	 viewBox="0 0 490 490" style="enable-background:new 0 0 490 490;" xml:space="preserve">
<g>
	<path d="M0,245c0,135.1,109.9,245,245,245s245-109.9,245-245S380.1,0,245,0S0,109.9,0,245z M245,68c97.6,0,177,79.4,177,177
		c0,43.8-16.1,84-42.6,114.9c-36.5-28-72.9-46.4-80.9-50.3c-1-0.5-1.6-1.5-1.6-2.6c0-4.2,0-15,0-26.6c4-8.2,6.3-16.9,7.7-24.9
		c3.6,2.4,9.5,1.2,16-21.9c5.3-18.7,2.1-25-2.5-26.6c14.9-71.2-19.1-73.6-19.1-73.6s-5.1-9.9-18.6-17.3c-9-5.4-21.6-9.5-38.3-8.1
		c-5.4,0.3-10.5,1.3-15.2,2.9l0,0c-6.1,2.1-11.7,5.1-16.8,8.6c-6.2,3.9-12.1,8.8-17.2,14.3c-8.2,8.4-15.5,19.2-18.6,32.7
		c-3,11.5-2.9,23.9,1.6,36.5c-6.1-0.6-13.3,3-6.5,27c5,17.5,9.6,22.5,13.1,22.7c1.5,10,4.7,21.2,10.7,31.3v23c0,1.1-0.6,2.1-1.6,2.6
		c-8,3.9-44.3,22.3-80.9,50.3C84.1,329,68,288.8,68,245C68,147.4,147.4,68,245,68z"/>
</g>
<g>
</g>
<g>
</g>
<g>
</g>
<g>
</g>
<g>
</g>
<g>
</g>
<g>
</g>
<g>
</g>
<g>
</g>
<g>
</g>
<g>
</g>
<g>
</g>
<g>
</g>
<g>
</g>
<g>
</g>
</svg>
