<?xml version="1.0" encoding="iso-8859-1"?>
<!-- Generator: Adobe Illustrator 19.0.0, SVG Export Plug-In . SVG Version: 6.00 Build 0)  -->
<svg version="1.1" id="Capa_1" xmlns="http://www.w3.org/2000/svg" xmlns:xlink="http://www.w3.org/1999/xlink" x="0px" y="0px"
	 viewBox="0 0 488.8 488.8" style="enable-background:new 0 0 488.8 488.8;" xml:space="preserve">
<g>
	<g>
		<path d="M437,203.2l-61.6-35.6v10.1c0,30.4-24.7,55.1-55.1,55.1H84.6c-30.4,0-55.1-24.7-55.1-55.1V55.1C29.5,24.7,54.2,0,84.6,0
			h235.7c30.4,0,55.1,24.7,55.1,55.1v10.1L437,29.6c9.9-5.7,22.3,1.4,22.3,12.9v147.8C459.2,201.8,446.9,208.9,437,203.2z
			 M320.2,474.7c7.1-7.1,7.1-18.7,0-25.9L218.9,347.6c-0.8-0.8-1.7-1.3-2.6-1.7v-46.5h48.8c10.1,0,18.3-8.2,18.3-18.3
			c0-10.1-8.2-18.3-18.3-18.3H131c-10.1,0-18.3,8.2-18.3,18.3c0,10.1,8.2,18.3,18.3,18.3h48.8v46.5c-0.9,0.4-1.8,0.9-2.6,1.7
			L75.9,448.9c-7.1,7.1-7.1,18.7,0,25.9c7.1,7.1,18.7,7.1,25.9,0l78-78v73.7c0,10.1,8.2,18.3,18.3,18.3s18.3-8.2,18.3-18.3v-73.7
			l78,78C301.5,481.9,313,481.9,320.2,474.7z"/>
	</g>
</g>
<g>
</g>
<g>
</g>
<g>
</g>
<g>
</g>
<g>
</g>
<g>
</g>
<g>
</g>
<g>
</g>
<g>
</g>
<g>
</g>
<g>
</g>
<g>
</g>
<g>
</g>
<g>
</g>
<g>
</g>
</svg>
