<?xml version="1.0" encoding="iso-8859-1"?>
<!-- Generator: Adobe Illustrator 19.0.0, SVG Export Plug-In . SVG Version: 6.00 Build 0)  -->
<svg version="1.1" id="Capa_1" xmlns="http://www.w3.org/2000/svg" xmlns:xlink="http://www.w3.org/1999/xlink" x="0px" y="0px"
	 viewBox="0 0 488 488" style="enable-background:new 0 0 488 488;" xml:space="preserve">
<g>
	<g>
		<path d="M244,0C109.5,0,0,109.5,0,244s109.5,244,244,244s244-109.5,244-244S378.5,0,244,0z M244,413.8
			c-93.7,0-169.8-76.2-169.8-169.9S150.4,74.1,244,74.1c93.7,0,169.9,76.2,169.9,169.8C413.8,337.7,337.7,413.8,244,413.8z
			 M342.1,230.9c0.6,4.3,1,8.6,1,13.1c0,54.7-44.4,99.1-99.1,99.1s-99.1-44.4-99.1-99.1s44.4-99.1,99.1-99.1c4.4,0,8.8,0.4,13.1,1
			c-9.5,10.7-15.4,24.7-15.4,40.1c0,33.3,27,60.3,60.3,60.3C317.4,246.3,331.5,240.5,342.1,230.9z"/>
	</g>
</g>
<g>
</g>
<g>
</g>
<g>
</g>
<g>
</g>
<g>
</g>
<g>
</g>
<g>
</g>
<g>
</g>
<g>
</g>
<g>
</g>
<g>
</g>
<g>
</g>
<g>
</g>
<g>
</g>
<g>
</g>
</svg>
