<?xml version="1.0" encoding="iso-8859-1"?>
<!-- Generator: Adobe Illustrator 19.0.0, SVG Export Plug-In . SVG Version: 6.00 Build 0)  -->
<svg version="1.1" id="Capa_1" xmlns="http://www.w3.org/2000/svg" xmlns:xlink="http://www.w3.org/1999/xlink" x="0px" y="0px"
	 viewBox="0 0 490.1 490.1" style="enable-background:new 0 0 490.1 490.1;" xml:space="preserve">
<g>
	<g>
		<g>
			<path d="M244.95,0c-105,0-190.1,85.1-190.1,190.1v93.1v37.7V402c0,20.9,16.9,37.8,37.8,37.8h0.6c20.9,0,37.8-16.9,37.8-37.8
				v-43.3c0-20.9,16.9-37.8,37.8-37.8h0.6c20.9,0,37.8,16.9,37.8,37.8v93.6c0,20.9,16.9,37.8,37.8,37.8h0.6
				c20.9,0,37.8-16.9,37.8-37.8v-93.6c0-20.9,16.9-37.8,37.8-37.8s37.8,16.9,37.8,37.8v40.1c0,20.9,16.9,37.8,37.8,37.8h0.6
				c20.9,0,37.8-16.9,37.8-37.8v-89.9v-25.7v-93.1C435.05,85.1,349.95,0,244.95,0z M244.95,260c-47.5,0-86-38.5-86-86s38.5-86,86-86
				s86,38.5,86,86S292.45,260,244.95,260z"/>
		</g>
		<g>
			<path d="M277.85,154c-6.8-11.1-18.9-18.6-32.9-18.6c-21.3,0-38.6,17.3-38.6,38.6s17.3,38.6,38.6,38.6c14,0,26.1-7.5,32.9-18.6
				c-8.8-2.5-15.2-10.5-15.2-20.1C262.55,164.5,269.05,156.5,277.85,154z"/>
		</g>
	</g>
</g>
<g>
</g>
<g>
</g>
<g>
</g>
<g>
</g>
<g>
</g>
<g>
</g>
<g>
</g>
<g>
</g>
<g>
</g>
<g>
</g>
<g>
</g>
<g>
</g>
<g>
</g>
<g>
</g>
<g>
</g>
</svg>
