<?xml version="1.0" encoding="iso-8859-1"?>
<!-- Generator: Adobe Illustrator 19.0.0, SVG Export Plug-In . SVG Version: 6.00 Build 0)  -->
<svg version="1.1" id="Capa_1" xmlns="http://www.w3.org/2000/svg" xmlns:xlink="http://www.w3.org/1999/xlink" x="0px" y="0px"
	 viewBox="0 0 490 490" style="enable-background:new 0 0 490 490;" xml:space="preserve">
<g>
	<path d="M245,490c135.1,0,245-109.9,245-245S380.1,0,245,0S0,109.9,0,245S109.9,490,245,490z M317.3,412.7
		c14.9-20.8,29.3-47,39.2-79.2h48.2C385.2,368.6,354.4,396.6,317.3,412.7z M420.1,193.2c4.9,16.4,7.5,33.8,7.5,51.8
		s-2.7,35.4-7.5,51.8h-55c2.7-16.1,4.3-33.3,4.3-51.8s-1.6-35.7-4.3-51.8L420.1,193.2L420.1,193.2z M404.7,156.5h-48.2
		c-9.9-32.2-24.3-58.4-39.2-79.2C354.4,93.4,385.2,121.4,404.7,156.5z M263.3,70.4c17.7,17.9,39.9,46.3,54.3,86.1h-54.3V70.4z
		 M263.3,193.2h64.4c3.1,15.9,5,33.1,5,51.8s-1.8,35.9-4.9,51.8h-64.5V193.2z M263.3,333.5h54.5c-14.4,40.2-36.7,68.6-54.5,86.4
		V333.5z M85.3,333.5h48.2c9.9,32.2,24.3,58.4,39.2,79.2C135.6,396.6,104.8,368.6,85.3,333.5z M226.7,419.6
		c-17.7-17.9-39.9-46.3-54.3-86.1h54.3V419.6z M226.7,296.8h-64.4c-3.1-15.9-5-33.1-5-51.8s1.8-35.9,4.9-51.8h64.5L226.7,296.8
		L226.7,296.8z M226.7,156.5h-54.5c14.4-40.2,36.7-68.6,54.5-86.4V156.5z M172.7,77.3c-14.9,20.8-29.3,47-39.2,79.2H85.3
		C104.8,121.4,135.6,93.4,172.7,77.3z M62.4,245c0-18,2.7-35.4,7.5-51.8h55c-2.7,16.1-4.3,33.3-4.3,51.8s1.6,35.7,4.3,51.8h-55
		C65,280.4,62.4,263,62.4,245z"/>
</g>
<g>
</g>
<g>
</g>
<g>
</g>
<g>
</g>
<g>
</g>
<g>
</g>
<g>
</g>
<g>
</g>
<g>
</g>
<g>
</g>
<g>
</g>
<g>
</g>
<g>
</g>
<g>
</g>
<g>
</g>
</svg>
